<?xml version="1.0" encoding="utf-8"?>
<!-- Generator: Adobe Illustrator 16.0.0, SVG Export Plug-In . SVG Version: 6.00 Build 0)  -->
<!DOCTYPE svg PUBLIC "-//W3C//DTD SVG 1.1//EN" "http://www.w3.org/Graphics/SVG/1.1/DTD/svg11.dtd">
<svg version="1.1" id="Calque_1" xmlns="http://www.w3.org/2000/svg" xmlns:xlink="http://www.w3.org/1999/xlink" x="0px" y="0px"
	 width="600px" height="160px" viewBox="0 0 600 160" enable-background="new 0 0 600 160" xml:space="preserve">
<g>
	<path fill="#FFFFFF" d="M201.6,151.961c2.01,0,3.573,1.561,3.573,3.573c0,2.01-1.563,3.573-3.573,3.573h-34.411
		c-2.12,0-3.798-1.676-3.798-3.799V86.826c0-2.123,1.678-3.799,3.798-3.799c2.123,0,3.798,1.677,3.798,3.799v65.135H201.6
		L201.6,151.961z"/>
	<path fill="#FFFFFF" d="M202.607,110.176c-0.336,0.336-0.672,0.67-1.451,0.67c-0.896,0-1.678-0.67-1.678-1.676
		c0-0.336,0.111-0.67,0.336-1.006c2.68-3.688,4.135-6.258,4.135-10.168c0-4.245-4.022-5.025-4.022-9.609
		c0-3.687,2.01-5.359,5.251-5.359c3.462,0,5.475,2.011,5.475,7.148C210.65,97.889,207.522,105.035,202.607,110.176z"/>
	<path fill="#FFFFFF" d="M230.426,156.202c0,2.01-1.678,3.796-3.799,3.796c-2.124,0-3.799-1.786-3.799-3.796V86.826
		c0-2.012,1.678-3.801,3.799-3.801s3.799,1.789,3.799,3.801V156.202z"/>
	<path fill="#FFFFFF" d="M300.808,86.717v69.485c0,2.123-1.675,3.798-3.797,3.798c-1.341,0-2.347-0.559-3.129-1.562l-39.323-59.321
		v57.198c0,2.011-1.677,3.686-3.689,3.686c-2.01,0-3.686-1.675-3.686-3.686V86.717c0-2.014,1.676-3.689,3.686-3.689
		c1.342,0,2.457,0.783,3.019,1.564l39.548,59.436V86.717c0-2.014,1.675-3.689,3.688-3.689
		C299.133,83.027,300.808,84.701,300.808,86.717z"/>
	<path fill="#FFFFFF" d="M337.125,83.922c21.337,0,34.52,10.053,34.52,37.648c0,27.597-13.183,37.539-34.52,37.539H321.37
		c-2.124,0-3.801-1.676-3.801-3.799v-67.59c0-2.123,1.677-3.799,3.801-3.799H337.125z M325.166,152.182h11.959
		c16.643,0,26.809-7.375,26.809-30.611c0-23.012-10.168-30.723-26.809-30.723h-11.959V152.182z"/>
	<path fill="#FFFFFF" d="M389.302,159.107c-2.127,0-3.802-1.676-3.802-3.799V87.721c0-2.123,1.675-3.799,3.802-3.799h35.857
		c1.9,0,3.465,1.564,3.465,3.463s-1.563,3.463-3.465,3.463h-32.063v26.924h24.579c1.897,0,3.462,1.566,3.462,3.463
		c0,1.901-1.562,3.465-3.462,3.465h-24.579v27.482h33.293c1.897,0,3.465,1.566,3.465,3.465c0,1.897-1.563,3.463-3.465,3.463h-37.087
		V159.107L389.302,159.107z"/>
	<path fill="#FFFFFF" d="M462.362,127.379l-20.328,31.17c-0.558,0.893-1.786,1.451-3.02,1.451c-2.12,0-3.796-1.675-3.796-3.798
		c0-0.781,0.223-1.45,0.557-2.009l22.346-33.627l-21.006-31.731c-0.331-0.446-0.557-1.337-0.557-2.009
		c0-2.125,1.676-3.797,3.798-3.797c1.565,0,2.569,0.781,3.352,1.898l18.654,28.598l18.657-28.598
		c0.783-1.117,1.789-1.898,3.354-1.898c2.119,0,3.798,1.675,3.798,3.797c0,0.672-0.227,1.562-0.562,2.009l-21.001,31.731
		l22.343,33.627c0.337,0.559,0.56,1.228,0.56,2.009c0,2.123-1.676,3.798-3.796,3.798c-1.229,0-2.462-0.559-3.02-1.451
		L462.362,127.379z"/>
</g>
<g>
	<path fill="#FFFFFF" d="M17.649,102.352H7.981c-1.104,0-1.975,0.869-1.975,1.974v29.78c0,1.107,0.871,1.978,1.975,1.978
		c1.108,0,1.978-0.869,1.978-1.978v-12.11h7.688c5.925,0,9.604-3.776,9.604-9.847C27.25,106.104,23.574,102.352,17.649,102.352
		 M23.252,112.146c0,3.934-2.219,6.185-6.086,6.185H9.959v-12.319h7.207C21.032,106.012,23.252,108.245,23.252,112.146"/>
	<path fill="#FFFFFF" d="M44.745,103.277c-0.343-0.821-1.056-1.315-1.902-1.315c-0.864,0-1.488,0.445-1.855,1.321l-11.843,29.945
		c-0.133,0.265-0.177,0.67-0.177,0.877c0,1.07,0.904,1.977,1.974,1.977c0.864,0,1.575-0.514,1.906-1.369l3.465-8.688H49.42
		l3.415,8.729c0.327,0.844,1.019,1.327,1.906,1.327c1.14,0,2.027-0.868,2.027-1.978c0-0.174-0.057-0.562-0.17-0.851L44.745,103.277z
		 M48.149,122.361H37.584l5.263-13.637L48.149,122.361z"/>
	<path fill="#FFFFFF" d="M76.101,105.334c3.243,0,6.458,1.548,8.201,3.958c0.404,0.507,0.903,0.752,1.516,0.752
		c1.052,0,1.879-0.825,1.879-1.88c0-0.432-0.136-0.838-0.401-1.207c-2.396-3.311-6.577-5.286-11.193-5.286
		c-9.981,0-15.48,6.173-15.48,17.375c0,11.497,5.21,17.327,15.48,17.327c4.62,0,9.036-2.079,11.251-5.295
		c0.206-0.314,0.344-0.621,0.344-1.104c0-1.055-0.827-1.879-1.879-1.879c-0.62,0-1.188,0.288-1.528,0.771
		c-1.676,2.405-4.739,3.844-8.188,3.844c-7.796,0-11.427-4.345-11.427-13.665C64.673,109.943,68.516,105.334,76.101,105.334"/>
	<path fill="#FFFFFF" d="M113.637,132.031H99.484v-11.303h10.363c1.009,0,1.83-0.821,1.83-1.834c0-1.006-0.821-1.826-1.83-1.826
		H99.484v-11.057h13.615c1.01,0,1.831-0.822,1.831-1.83c0-1.011-0.819-1.832-1.831-1.832H97.505c-1.108,0-1.972,0.871-1.972,1.975
		v29.391c0,1.107,0.863,1.977,1.972,1.977h16.131c1.01,0,1.828-0.823,1.828-1.83C115.464,132.852,114.646,132.031,113.637,132.031"
		/>
	<path fill="#FFFFFF" d="M61.267,27.499c-8.902,0-12.215,4.182-12.215,8.467c0,14.037,39.135,7.496,39.135,34.324
		c0,13.096-9.213,21.229-26.92,21.229c-12.76,0-22.942-6.336-27.125-13.072c-0.527-0.852-0.858-1.938-0.858-3.021
		c0-3.213,2.561-5.785,5.684-5.785c2.357,0,3.642,1.288,4.724,2.346c4.5,4.523,10.188,8.157,17.577,8.157
		c9.771,0,14.479-3.213,14.479-9.856c0-15.657-39.146-8.471-39.146-34.324c0-10.618,7.606-19.622,24.667-19.622
		c10.732,0,20.057,3.961,24.348,10.076c0.653,0.964,1.076,2.16,1.076,3.431c0,3.106-2.576,5.688-5.799,5.688
		c-1.497,0-3.001-0.856-4.612-2.357C72.961,29.954,67.38,27.499,61.267,27.499"/>
	<path fill="#FFFFFF" d="M18.108,75.115h0.003c-3.554-6.251-5.59-13.48-5.59-21.184c0-7.707,2.029-14.935,5.59-21.183l-0.005-0.009
		c0.864-1.482,1.244-2.878-0.637-3.992c-0.837-0.497-2.023-0.758-3.205-0.77c-1.19-0.006-2.374,0.243-3.195,0.771
		c-0.737,0.472-1.605,1.562-2.38,2.779c-0.33,0.517-0.641,1.056-0.924,1.581C4.339,39.277,2.382,46.375,2.382,53.93
		c0,7.557,1.958,14.654,5.382,20.823c0.284,0.523,0.594,1.063,0.924,1.578c0.775,1.218,1.643,2.307,2.379,2.782
		c0.822,0.526,2.005,0.775,3.196,0.769c1.181-0.008,2.367-0.27,3.205-0.768C19.351,77.999,18.973,76.594,18.108,75.115"/>
	<path fill="#FFFFFF" d="M104.004,79.114c0.84,0.497,2.025,0.761,3.206,0.768c1.19,0.008,2.371-0.243,3.194-0.769
		c0.739-0.476,1.603-1.564,2.382-2.78c0.327-0.517,0.639-1.056,0.921-1.579c3.43-6.169,5.384-13.266,5.384-20.823
		c0-7.556-1.954-14.652-5.384-20.821c-0.282-0.526-0.594-1.062-0.927-1.581c-0.772-1.217-1.636-2.308-2.375-2.78
		c-0.822-0.528-2.002-0.778-3.193-0.771c-1.18,0.01-2.365,0.272-3.207,0.769c-1.883,1.115-1.501,2.511-0.638,3.993l-0.004,0.009
		c3.556,6.249,5.589,13.477,5.589,21.183c0,7.704-2.033,14.933-5.589,21.184h0.004C102.502,76.595,102.12,78.002,104.004,79.114"/>
	<path fill="#FFFFFF" d="M5.662,152.756c0-4.902,2.357-7.262,6.472-7.262c2.507,0,4.144,0.997,4.986,2.236
		c0.167,0.246,0.227,0.453,0.227,0.681c0,0.603-0.496,1.098-1.115,1.098c-0.292,0-0.583-0.122-0.851-0.405
		c-0.846-0.938-1.735-1.455-3.249-1.455c-2.749,0-3.992,1.694-3.992,5.109c0,3.623,1.244,5.09,3.992,5.09
		c1.531,0,2.362-0.354,3.356-1.365c0.326-0.334,0.599-0.457,0.888-0.457c0.62,0,1.115,0.496,1.115,1.119
		c0,0.242-0.083,0.455-0.205,0.621c-0.997,1.319-2.94,2.234-5.155,2.234C8.019,159.999,5.662,157.82,5.662,152.756"/>
	<path fill="#FFFFFF" d="M33.734,154.373v4.298c0,0.663-0.536,1.198-1.199,1.198c-0.66,0-1.2-0.535-1.2-1.198v-11.688
		c0-0.655,0.54-1.193,1.2-1.193h3.951c2.793,0,4.366,1.98,4.366,4.32c0,1.964-1.201,3.863-3.188,4.115l3.061,3.724
		c0.188,0.252,0.25,0.495,0.25,0.724c0,0.663-0.539,1.196-1.2,1.196c-0.349,0-0.724-0.162-0.925-0.435l-3.772-5.062L33.734,154.373
		L33.734,154.373L33.734,154.373z M33.734,147.938v4.321h2.791c1.29,0,1.843-1.052,1.843-2.147c0-1.118-0.555-2.174-1.903-2.174
		H33.734L33.734,147.938z"/>
	<path fill="#FFFFFF" d="M54.28,152.756c0-4.902,2.379-7.262,6.558-7.262c4.176,0,6.554,2.361,6.554,7.262
		c0,4.842-2.378,7.243-6.554,7.243C56.659,159.999,54.28,157.598,54.28,152.756 M56.768,152.756c0,3.417,1.337,5.092,4.071,5.092
		c2.733,0,4.074-1.675,4.074-5.092c0-3.434-1.341-5.107-4.074-5.107C58.104,147.65,56.768,149.324,56.768,152.756"/>
	<path fill="#FFFFFF" d="M81.239,155.152v-8.332c0-0.66,0.536-1.202,1.2-1.202c0.66,0,1.193,0.543,1.193,1.202v8.332
		c0,1.261,0.479,2.732,2.816,2.732c2.34,0,2.815-1.473,2.815-2.732v-8.332c0-0.66,0.541-1.202,1.202-1.202
		c0.656,0,1.195,0.543,1.195,1.202v8.332c0,2.363-1.033,4.847-5.213,4.847C82.273,159.999,81.239,157.516,81.239,155.152"/>
	<path fill="#FFFFFF" d="M109.62,147.65c-1.715,0-2.361,0.802-2.361,1.634c0,2.704,7.557,1.444,7.557,6.614
		c0,2.526-1.774,4.101-5.195,4.101c-2.454,0-4.426-1.224-5.228-2.524c-0.104-0.168-0.167-0.371-0.167-0.578
		c0-0.627,0.494-1.119,1.095-1.119c0.459,0,0.703,0.248,0.907,0.455c0.87,0.869,1.965,1.574,3.394,1.574
		c1.885,0,2.797-0.625,2.797-1.908c0-3.02-7.55-1.635-7.55-6.614c0-2.048,1.465-3.789,4.753-3.789c2.069,0,3.866,0.769,4.701,1.948
		c0.12,0.183,0.207,0.412,0.207,0.666c0,0.596-0.503,1.092-1.118,1.092c-0.285,0-0.581-0.167-0.892-0.448
		C111.874,148.123,110.796,147.65,109.62,147.65"/>
</g>
<g>
	<path fill="#FFFFFF" d="M540.537,52.937c-3.465,0.6-5.812,3.902-5.191,7.372c2.039,11.411,4.041,23.308,5.901,34.042
		c-6.44-3.974-7.573-5.699-13.285-7.004c-8.308-1.899-9.739,6.836-3.808,10.562c8.188,5.146,20.348,17.384,23.466,28.396
		c1.427,5.049,1.972,10.022,2.806,14.818c0.135,0.766,0.887,1.268,1.656,1.132l34.273-5.942c0.631-0.108,0.979-0.604,0.984-1.158
		c0.025-3.549-0.334-7.137,0.184-10.521c1.402-9.21,2.621-18.344,0.744-28.93c-1.104-6.266-1.936-11.161-3.016-17.384
		c-0.693-4.004-3.458-5.355-5.923-5.049c-2.586,0.323-3.493,1.23-4.933,2.947c-0.604-3.48-3.928-5.789-7.406-5.183
		c-2.1,0.363-3.732,1.696-4.605,3.479c-0.97-2.979-4.011-4.867-7.176-4.316c-2.072,0.358-3.773,1.667-4.658,3.411l-2.645-15.478
		C547.305,54.658,543.998,52.338,540.537,52.937z"/>
	<path opacity="0.8" fill="#FFFFFF" enable-background="new    " d="M536.668,31.321c-1.514,0.326-2.508,1.781-2.263,3.311
		l2.192,12.638c0.274,1.587,1.787,2.65,3.375,2.373c0.01-0.001,0.021-0.002,0.032-0.006c1.567-0.296,2.607-1.792,2.337-3.364
		l-2.193-12.637c-0.295-1.583-1.818-2.626-3.402-2.331C536.721,31.311,536.691,31.316,536.668,31.321z"/>
	<path opacity="0.8" fill="#FFFFFF" enable-background="new    " d="M519.696,41.957c-1.556,0.419-2.476,2.02-2.056,3.576
		c0.179,0.662,0.582,1.24,1.146,1.632c0.015-0.002,0.026-0.005,0.037-0.006l10.478,7.413c1.327,0.915,3.144,0.58,4.057-0.747
		c0.01-0.013,0.019-0.025,0.025-0.04l0.039-0.007c0.877-1.323,0.531-3.105-0.775-4.008l-7.862-5.539l-2.606-1.836
		c-0.477-0.343-1.045-0.532-1.631-0.546c-0.195,0-0.393,0.022-0.582,0.062C519.875,41.921,519.787,41.938,519.696,41.957z"/>
	<path opacity="0.8" fill="#FFFFFF" enable-background="new    " d="M555.811,35.693c-0.613,0.2-1.141,0.597-1.502,1.127
		l-1.875,2.614l-5.539,7.864c-0.912,1.299-0.623,3.089,0.66,4.028c1.293,0.963,3.119,0.695,4.082-0.595
		c0.012-0.013,0.021-0.027,0.028-0.039l7.409-10.516c0.925-1.317,0.609-3.136-0.709-4.065c-0.676-0.474-1.521-0.641-2.326-0.458
		C555.963,35.663,555.885,35.677,555.811,35.693z"/>
	<path opacity="0.8" fill="#FFFFFF" enable-background="new    " d="M515.633,61.28c-1.599,0.278-2.666,1.797-2.39,3.393
		c0.278,1.596,1.796,2.667,3.394,2.391l12.637-2.192c1.588-0.276,2.647-1.785,2.373-3.371l-0.006-0.038
		c-0.272-1.585-1.785-2.647-3.369-2.375L515.633,61.28z"/>
	<path opacity="0.8" fill="#FFFFFF" enable-background="new    " d="M554.157,54.599c-1.583,0.277-2.646,1.786-2.375,3.372
		l0.008,0.037c0.276,1.588,1.786,2.648,3.374,2.375l12.674-2.198c1.598-0.278,2.665-1.796,2.391-3.392
		c-0.278-1.596-1.797-2.668-3.395-2.39L554.157,54.599z"/>
</g>
</svg>
