<?xml version="1.0" encoding="utf-8"?>
<!-- Generator: Adobe Illustrator 16.0.0, SVG Export Plug-In . SVG Version: 6.00 Build 0)  -->
<!DOCTYPE svg PUBLIC "-//W3C//DTD SVG 1.1//EN" "http://www.w3.org/Graphics/SVG/1.1/DTD/svg11.dtd">
<svg version="1.1" id="Calque_1" xmlns="http://www.w3.org/2000/svg" xmlns:xlink="http://www.w3.org/1999/xlink" x="0px" y="0px"
	 width="310px" height="160px" viewBox="0 0 310 160" enable-background="new 0 0 310 160" xml:space="preserve">
<g>
	<polygon fill="#E85153" points="300.832,79.401 297.678,83.785 300.137,88.6 296.331,92.432 298.005,97.566 293.646,100.758 
		294.479,106.084 289.684,108.556 289.665,113.951 284.545,115.632 283.698,120.963 278.362,121.836 276.698,126.968 
		271.296,126.991 268.847,131.812 263.511,130.984 260.335,135.345 255.194,133.691 251.372,137.509 246.554,135.071 
		242.18,138.233 237.8,135.085 232.992,137.542 229.154,133.743 224.024,135.405 220.832,131.05 215.503,131.886 213.03,127.093 
		207.631,127.079 205.953,121.953 200.618,121.098 199.753,115.768 194.623,114.104 194.594,108.694 189.786,106.251 
		190.603,100.915 186.243,97.744 187.889,92.594 184.078,88.772 186.514,83.961 183.352,79.582 186.5,75.198 184.045,70.401 
		187.856,66.556 186.182,61.424 190.533,58.239 189.7,52.908 194.503,50.437 194.513,45.041 199.632,43.355 200.49,38.024 
		205.825,37.16 207.485,32.02 212.887,31.997 215.336,27.195 220.676,28.003 223.848,23.642 228.994,25.291 232.815,21.478 
		237.629,23.912 241.998,20.754 246.382,23.897 251.191,21.455 255.029,25.253 260.163,23.586 263.351,27.933 268.68,27.102 
		271.147,31.908 276.551,31.922 278.234,37.04 283.57,37.894 284.434,43.225 289.565,44.888 289.593,50.289 294.397,52.741 
		293.575,58.066 297.945,61.248 296.299,66.389 300.104,70.215 297.669,75.04 	"/>
	<g>
		<path fill="#FFFFFF" d="M269.56,95.821l-14.624-38.823c-0.569-1.527-2.034-2.54-3.671-2.54c-1.625,0-3.1,1.013-3.662,2.54
			l-5.686,15.042l-4.193,11.108l-0.3,0.784v0.006c0,0-2.003,5.279-2.021,5.35c-1.825,5.646-5.958,7.165-9.026,6.171
			c-1.14-0.366-2.948-1.337-2.254-3.654l8.438-22.31l4.013,10.621l4.232-11.002l-4.574-12.116c-0.581-1.527-2.041-2.54-3.671-2.54
			c-1.636,0-3.097,1.013-3.678,2.54l-12.139,32.136c-0.028,0.06-0.048,0.124-0.072,0.189c-1.897,5.907,1.175,11.634,7.3,13.603
			c6.125,1.973,14.084-0.521,17.923-8.73l9.371-24.701l10.948,29.094c0.598,1.579,2.087,2.536,3.68,2.536
			c0.458,0,0.922-0.075,1.379-0.247C269.309,100.107,270.326,97.842,269.56,95.821"/>
		<path fill="#FFFFFF" d="M230.498,47.729l1.67,4.881c0.065-0.004,0.132-0.004,0.214-0.004L230.498,47.729z"/>
		<polygon fill="#FFFFFF" points="242.282,65.766 242.086,45.695 241.569,65.831 241.915,66.755 		"/>
		<polygon fill="#FFFFFF" points="268.043,57.793 259.749,64.485 259.917,64.897 		"/>
		<polygon fill="#FFFFFF" points="273.93,91.159 269.103,89.306 269.198,89.544 		"/>
		<polygon fill="#FFFFFF" points="208.213,79.573 218.28,79.781 218.436,79.373 		"/>
		<polygon fill="#FFFFFF" points="208.72,73.712 219.757,75.867 219.915,75.449 		"/>
		<polygon fill="#FFFFFF" points="208.72,85.438 216.599,84.217 216.733,83.868 		"/>
		<path fill="#FFFFFF" d="M210.258,91.159l4.379-1.505c0.019-0.069,0.039-0.135,0.062-0.209L210.258,91.159z"/>
		<polygon fill="#FFFFFF" points="273.93,67.986 262.545,71.896 262.708,72.314 		"/>
		<path fill="#FFFFFF" d="M253.682,47.729l-1.888,4.899c0.068,0,0.143,0.004,0.205,0.023L253.682,47.729z"/>
		<polygon fill="#FFFFFF" points="210.258,67.986 221.152,72.194 221.31,71.766 		"/>
		<path fill="#FFFFFF" d="M259.046,50.242l-2.977,4.918c0.056,0.056,0.1,0.135,0.137,0.219L259.046,50.242z"/>
		<polygon fill="#FFFFFF" points="263.878,53.632 258.138,60.198 258.275,60.565 		"/>
		<polygon fill="#FFFFFF" points="275.462,73.712 263.911,75.5 264.068,75.937 		"/>
		<polygon fill="#FFFFFF" points="275.462,85.438 267.026,83.794 267.164,84.146 		"/>
		<polygon fill="#FFFFFF" points="275.971,79.573 265.367,79.364 265.512,79.791 		"/>
		<polygon fill="#FFFFFF" points="271.424,62.623 261.187,68.278 261.352,68.72 		"/>
		<polygon fill="#FFFFFF" points="216.142,57.793 223.997,64.657 224.141,64.248 		"/>
		<path fill="#FFFFFF" d="M225.141,50.242l2.677,4.83c0.039-0.065,0.082-0.13,0.132-0.186L225.141,50.242z"/>
		<polygon fill="#FFFFFF" points="220.305,53.632 225.654,60.258 225.787,59.905 		"/>
		<path fill="#FFFFFF" d="M238.448,57.583l-2.22-11.381l1.473,9.542c0.106,0.2,0.199,0.39,0.271,0.6L238.448,57.583z"/>
		<polygon fill="#FFFFFF" points="212.759,62.627 222.525,68.529 222.687,68.107 		"/>
		<path fill="#FFFFFF" d="M245.734,57.583l2.22-11.381l-1.479,9.542c-0.104,0.2-0.195,0.39-0.269,0.6L245.734,57.583z"/>
		<path fill="#FFFFFF" d="M242.089,130.906c-28.351,0-51.41-23.066-51.41-51.413s23.059-51.412,51.41-51.412
			c28.36,0,51.414,23.066,51.414,51.412S270.449,130.906,242.089,130.906 M242.089,28.458c-28.137,0-51.033,22.895-51.033,51.036
			c0,28.146,22.896,51.045,51.033,51.045c28.142,0,51.043-22.899,51.043-51.045C293.132,51.352,270.231,28.458,242.089,28.458"/>
		<path fill="#FFFFFF" d="M242.089,115.348c-19.769,0-35.855-16.085-35.855-35.854c0-19.764,16.086-35.86,35.855-35.86
			c19.773,0,35.865,16.096,35.865,35.86C277.954,99.263,261.862,115.348,242.089,115.348 M242.089,44.01
			c-19.564,0-35.479,15.919-35.479,35.483c0,19.569,15.915,35.484,35.479,35.484c19.567,0,35.488-15.915,35.488-35.484
			C277.577,59.929,261.656,44.01,242.089,44.01"/>
		<path fill="#FFFFFF" d="M202.402,69.909c0.676,0.163,1.161-0.014,1.308-0.632c0.148-0.608-0.191-0.984-0.885-1.151l-5.835-1.402
			l0.19-0.79l5.789,1.384c1.159,0.288,1.806,0.999,1.529,2.187c-0.286,1.166-1.198,1.509-2.345,1.236l-5.794-1.394l0.199-0.845
			L202.402,69.909z"/>
		<polygon fill="#FFFFFF" points="208.421,59.316 208.012,59.994 201.311,55.912 201.887,54.951 207.683,56.358 202.839,53.404 
			203.243,52.741 209.938,56.836 209.474,57.612 203,56.014 		"/>
		<polygon fill="#FFFFFF" points="210.808,44.01 216.14,49.787 215.491,50.363 210.171,44.604 		"/>
		<polygon fill="#FFFFFF" points="220.082,37.448 224.296,42.984 222.355,36.315 223.077,35.958 225.291,43.625 224.138,44.205 
			219.283,37.848 		"/>
		<polygon fill="#FFFFFF" points="236.546,35.767 236.661,36.547 234.777,36.845 235.212,39.599 237.536,39.231 237.655,40.021 
			234.463,40.513 233.243,32.776 236.433,32.266 236.556,33.055 234.227,33.426 234.649,36.069 		"/>
		<path fill="#FFFFFF" d="M248.917,32.456c1.222,0.177,1.635,0.882,1.463,2.029l-0.093,0.632c-0.125,0.864-0.502,1.346-1.196,1.458
			c0.68,0.306,0.865,0.929,0.737,1.76l-0.176,1.211c-0.052,0.339-0.095,0.669,0.019,0.957l-0.881-0.13
			c-0.069-0.247-0.078-0.451-0.009-0.966l0.186-1.226c0.13-0.873-0.247-1.208-0.966-1.31l-0.618-0.088l-0.476,3.311l-0.864-0.125
			l1.135-7.77L248.917,32.456z M248.157,36.092c0.689,0.093,1.125-0.07,1.25-0.901l0.114-0.757c0.104-0.692-0.104-1.091-0.752-1.188
			l-0.841-0.13l-0.42,2.879L248.157,36.092z"/>
		<path fill="#FFFFFF" d="M263.27,39.129l-0.1,0.19l-0.749-0.371l0.121-0.232c0.31-0.627,0.247-1.128-0.32-1.402
			c-0.559-0.274-0.989-0.019-1.293,0.604c-0.764,1.588,1.522,2.893,0.561,4.875c-0.526,1.073-1.378,1.514-2.458,0.99
			c-1.084-0.52-1.235-1.463-0.717-2.536l0.195-0.399l0.731,0.357l-0.218,0.436c-0.309,0.637-0.228,1.134,0.338,1.417
			c0.565,0.279,1.018,0.028,1.317-0.613c0.766-1.564-1.523-2.86-0.553-4.857c0.535-1.086,1.371-1.509,2.432-0.998
			C263.627,37.114,263.783,38.052,263.27,39.129"/>
		<polygon fill="#FFFFFF" points="273.402,44.033 268.176,49.899 267.521,49.323 272.746,43.448 		"/>
		<polygon fill="#FFFFFF" points="274.452,57.226 280.387,53.404 279.607,52.183 280.268,51.761 282.308,54.918 281.652,55.355 
			280.863,54.143 274.928,57.96 		"/>
		<path fill="#FFFFFF" d="M283.986,68.186l-0.762,0.209l-0.513-1.854l-2.686,0.748l0.626,2.271l-0.771,0.223l-0.854-3.116
			l7.555-2.099l0.871,3.102l-0.766,0.213l-0.632-2.266l-2.582,0.729L283.986,68.186z M288.855,66.76l-1.403-0.696l-0.163-0.575
			l1.333,0.445L288.855,66.76z"/>
		<path fill="#FFFFFF" d="M279.737,89.293c0.294-1.204,1.029-1.557,2.164-1.278l0.622,0.154c0.834,0.199,1.284,0.608,1.338,1.323
			c0.376-0.65,1.007-0.775,1.83-0.571l1.183,0.278c0.335,0.089,0.653,0.158,0.948,0.074l-0.195,0.864
			c-0.253,0.041-0.463,0.041-0.971-0.089l-1.189-0.274c-0.875-0.227-1.243,0.112-1.412,0.822l-0.149,0.604l3.258,0.788l-0.2,0.847
			l-7.637-1.84L279.737,89.293z M283.289,90.374c0.167-0.674,0.037-1.129-0.789-1.328l-0.731-0.171
			c-0.681-0.167-1.109-0.015-1.261,0.626l-0.19,0.831l2.82,0.683L283.289,90.374z"/>
		<polygon fill="#FFFFFF" points="279.609,99.55 280.294,99.94 279.362,101.621 281.796,102.973 282.948,100.91 283.651,101.292 
			282.078,104.124 275.216,100.308 276.781,97.484 277.48,97.874 276.328,99.927 278.673,101.235 		"/>
		<polygon fill="#FFFFFF" points="270.939,106.005 276.725,111.309 276.135,111.958 270.349,106.65 		"/>
		<polygon fill="#FFFFFF" points="267.061,119.51 262.659,113.018 263.376,112.521 267.347,118.358 269.207,117.1 269.653,117.764 
					"/>
		<polygon fill="#FFFFFF" points="256.229,124.576 253.62,117.169 254.442,116.872 256.792,123.526 258.906,122.793 
			259.174,123.536 		"/>
		<polygon fill="#FFFFFF" points="246.624,122.144 246.68,122.923 244.768,123.075 244.991,125.853 247.332,125.681 
			247.399,126.462 244.174,126.722 243.575,118.887 246.786,118.642 246.847,119.435 244.503,119.621 244.713,122.291 		"/>
		<path fill="#FFFFFF" d="M234.952,118.237c1.222,0.218,1.602,1.044,1.384,2.211l-0.177,0.919c-0.228,1.227-0.922,1.765-2.15,1.528
			l-0.759-0.136l-0.567,3.038l-0.866-0.167l1.461-7.71L234.952,118.237z M234.157,122.12c0.646,0.124,0.999-0.117,1.144-0.86
			l0.196-1.021c0.13-0.706-0.056-1.104-0.69-1.222l-0.827-0.156l-0.585,3.119L234.157,122.12z"/>
		<polygon fill="#FFFFFF" points="221.303,121.854 224.394,115.517 223.096,114.884 223.443,114.165 226.834,115.822 
			226.477,116.528 225.178,115.901 222.092,122.244 		"/>
		<polygon fill="#FFFFFF" points="210.446,114.355 209.861,113.84 215.053,107.951 215.891,108.686 213.495,114.142 
			217.251,109.896 217.83,110.407 212.629,116.296 211.943,115.684 214.648,109.595 		"/>
		<path fill="#FFFFFF" d="M206.968,100.659c1.003-0.658,1.982-0.58,2.631,0.438c0.659,1.013,0.327,1.932-0.682,2.586l-3.41,2.207
			c-0.999,0.646-1.979,0.57-2.638-0.441c-0.653-1.017-0.325-1.937,0.685-2.582L206.968,100.659z M203.986,103.609
			c-0.608,0.403-0.784,0.872-0.453,1.398c0.344,0.533,0.857,0.551,1.456,0.161l3.491-2.247c0.594-0.381,0.793-0.854,0.448-1.398
			c-0.34-0.524-0.871-0.548-1.456-0.162L203.986,103.609z"/>
		<polygon fill="#FFFFFF" points="197.471,93.536 197.244,92.724 202.875,89.747 196.862,91.484 196.654,90.75 204.191,88.559 
			204.522,89.747 198.864,92.719 205.235,92.181 205.575,93.341 198.028,95.533 197.798,94.739 203.86,92.979 		"/>
		<path fill="#FFFFFF" d="M199.791,79.494c0,0.608-0.49,1.11-1.103,1.11c-0.608,0-1.103-0.502-1.103-1.11
			c0-0.608,0.494-1.105,1.103-1.105C199.301,78.388,199.791,78.885,199.791,79.494"/>
		<path fill="#FFFFFF" d="M286.659,79.494c0,0.608-0.49,1.11-1.103,1.11c-0.604,0-1.108-0.502-1.108-1.11
			c0-0.608,0.504-1.105,1.108-1.105C286.169,78.388,286.659,78.885,286.659,79.494"/>
	</g>
</g>
<g>
	<path fill="#4994D0" d="M35.38,86.844c2.306-0.182,4.83,0.424,7.181,0.216c-0.02-1.181-0.253-3.188-0.282-4.376
		c-0.179-5.542-0.464-10.875-0.749-16.131c-0.689-13.313-1.292-26.076,0.441-40.215c-12.01,0.861-18.247-3.243-30.136-1.952
		c2.063,21.062,1.528,41.5,2.729,62.527C23.789,88.094,26.769,87.518,35.38,86.844"/>
	<polygon fill="#FFFFFF" points="42.45,65.33 40.225,65.566 25.717,71.399 30.175,79.455 35.02,81.198 40.97,79.455 43.447,77.594 	
		"/>
	<polygon fill="#FFFFFF" points="26.787,67.997 25.946,67.275 26.814,65.198 29.745,62.935 32.377,62.643 34.402,63.545 
		36.313,65.914 35.471,67.185 30.791,65.33 	"/>
	<path fill="#ED7D00" d="M29.874,64.448c0.093-0.027,0.156-0.049,0.236-0.013c0.551-0.32,1.202-0.119,1.798-0.119
		c0.278,0.188,0.596,0.16,0.952,0.285c0.191-0.042,0.107,0.181,0.256,0.112c0.122,0.423,0.583,0.479,0.781,0.847
		c0.122,0.112,0.271,0.174,0.42,0.271c0.143,0.25,0.198,0.562,0.421,0.742c0.049,0.146,0.185,0.236,0.185,0.403
		c-0.094,0.139,0.176,0.229,0.027,0.389c0.1,0,0.073,0.091,0.107,0.139c0.087,0.306-0.263,0.389-0.354,0.618
		c-0.305,0.236-0.785,0.362-1.131,0.362c-0.349,0.159-0.812,0.236-1.152,0.506c-0.314,0.154-0.699,0.154-1.026,0.299
		c-0.829,0.43-1.71,0.548-2.552,1.028c-0.224,0.104-0.412,0.076-0.616,0.207c-0.151-0.034-0.23,0.063-0.379,0.084
		c-0.538-0.028-0.958,0.444-1.5,0.264l-0.028-0.076c0.028,0,0.028,0,0.035-0.036c-0.007-0.013-0.007-0.055-0.035-0.042h-0.02
		l-0.021-0.068l0.021-0.008c0-0.083-0.109-0.125-0.102-0.222c-0.014-0.139-0.097-0.389,0.028-0.548
		c-0.184-0.223-0.233-0.549-0.184-0.799c0.264-0.201,0.1-0.492,0.223-0.715c0.021-0.068,0.035-0.188,0.055-0.277
		c0.087-0.513,0.454-0.827,0.632-1.333c0.278-0.417,0.611-0.868,0.956-1.292c0.239-0.118,0.401-0.369,0.667-0.479l0.719-0.278
		C29.425,64.476,29.738,64.587,29.874,64.448"/>
	<path fill="#1D1D1B" d="M31.623,61.727c0.34-0.146,0.861-0.021,1.146-0.341c0.246,0.042,0.496,0,0.746-0.048
		c0.077,0.048,0.219-0.049,0.285-0.069c0.191-0.056,0.397,0.007,0.599-0.042c0,0.035,0.048,0.042,0.09,0.062
		c0.094-0.076,0.156,0.077,0.215,0.034c0.191,0.132,0.463,0.029,0.653,0.146c0.176-0.18,0.34,0.084,0.528-0.02
		c0.04,0.075,0.11,0.055,0.176,0.055c0.149-0.049,0.178,0.069,0.32,0.027c0.143,0.042,0.285,0.042,0.413,0.09
		c0.063,0.168,0.278,0.064,0.362,0.182c0.169,0.118,0.44,0.146,0.576,0.305c0.427,0.16,0.788,0.264,1.167,0.479
		c0.035,0.167,0.205,0.271,0.291,0.375c0.156-0.034,0.25,0.139,0.399,0.097c0.098,0.195,0.463,0.042,0.411,0.354
		c0.208,0.056,0.1,0.285,0.236,0.403c0.178,0.159,0.178,0.451,0.46,0.556c0.074,0.146,0.258,0.222,0.278,0.374
		c0.143,0.203,0.414,0.389,0.44,0.661c-0.1,0.048,0.008,0.159-0.013,0.236c-0.169,0.174-0.5,0.341-0.739,0.334
		c-0.292,0.075-0.611,0.395-0.91,0.368c-0.039,0.132-0.181,0.034-0.236,0.138c-0.15,0.105-0.348-0.041-0.512,0.077
		c-0.642,0.305-1.478,0.541-2.238,0.84c-0.466-0.049-0.69,0.41-1.111,0.487c-0.077,0.138-0.298,0.083-0.414,0.18l-0.176-0.007
		c-0.414,0.286-0.977,0.215-1.317,0.583c-0.509,0.021-0.929,0.298-1.37,0.5c-0.806,0.153-1.487,0.778-2.341,0.937
		c-0.25-0.111-0.406,0.201-0.612,0.201c-0.704,0.236-1.322,0.694-2.006,0.777c-0.132,0.188-0.469,0.146-0.424,0.459
		c-0.101,0.131,0.062,0.319,0.028,0.472c0.097,0.076,0.134,0.229,0.263,0.264c0.07,0.11,0.042,0.243,0.09,0.355
		c-0.048,0.062,0.013,0.167,0.072,0.208c0.164,0.263,0.511,0.423,0.469,0.771l0.091,0.229c-0.077,0.09,0.017,0.16,0.081,0.264
		c0.014,0.292,0.385,0.354,0.502,0.618l0.081,0.013c-0.048,0.056,0,0.152,0.035,0.223l0.059,0.034
		c-0.094,0.167,0.124,0.284,0.191,0.43c0.218,0.146,0.246,0.362,0.467,0.486c0.142,0.313,0.576,0.375,0.654,0.715
		c0.08,0.036,0.107,0.119,0.156,0.195c0.161,0.063,0.365,0.097,0.365,0.244c0.149,0,0.114,0.222,0.263,0.18
		c0.084,0.16,0.3,0.182,0.434,0.334c0.164,0.152,0.112,0.43,0.382,0.458c0.249,0.215,0.501,0.445,0.848,0.382
		c0.243-0.021,0.243,0.312,0.502,0.285c0.094,0.083,0.209,0.16,0.344,0.146c0.119,0.119,0.275,0.167,0.434,0.208
		c0.281,0,0.619,0.424,0.917,0.118c0.129-0.034,0.327-0.034,0.397,0.119c0.236-0.112,0.35,0.187,0.583,0.083
		c0.201,0.07,0.454,0.021,0.697-0.021c0.066,0.062,0.171,0,0.258,0.035c0.231,0,0.51-0.035,0.759,0.007
		c0.101-0.056,0.178-0.111,0.272-0.14c0.278,0,0.604,0.056,0.844-0.118c0.208-0.091,0.413-0.125,0.655-0.194
		c0.029,0.014,0.056,0.007,0.084-0.008c-0.014-0.104,0.093-0.034,0.166-0.09c0.071,0.049,0.198-0.014,0.255-0.076
		c0.045-0.111,0.127,0.014,0.195-0.014c0.359-0.063,0.645-0.417,1.013-0.472c0.01-0.105,0.149-0.078,0.188-0.146
		c0.285-0.417,0.829-0.306,1.201-0.661c0.305-0.208,0.454-0.68,0.766-0.895c-0.006-0.188,0.207-0.326,0.252-0.514
		c0.142-0.25,0.44-0.389,0.489-0.708c0.056-0.091,0.156-0.236,0.198-0.375c0-0.089,0.045-0.194,0.114-0.284
		c0.109-0.195,0.207-0.416,0.327-0.625c0.171-0.083,0.321-0.271,0.515-0.271c0.127,0.055,0.232,0.201,0.278,0.354
		c0.02,0.68-0.543,1.062-0.472,1.742c-0.104,0.195-0.084,0.424-0.213,0.667c-0.049,0.257-0.185,0.542-0.379,0.744
		c-0.014,0.153-0.183,0.202-0.169,0.374c-0.285,0.236-0.226,0.528-0.456,0.806c-0.006,0.104-0.048,0.118-0.127,0.167
		c-0.11,0.188-0.333,0.285-0.389,0.514c-0.158,0.119-0.201,0.348-0.393,0.459c0.041,0.187-0.177,0.201-0.242,0.347
		c-0.165,0.076-0.2,0.299-0.404,0.319c-0.156,0.181-0.392,0.326-0.534,0.556c-0.264,0.097-0.406,0.479-0.768,0.515
		c-0.42,0.276-1.003,0.443-1.385,0.742c-0.337,0.271-0.671,0.054-0.982,0.361c-0.142,0.034-0.285,0.062-0.434,0.034
		c-0.369,0.152-0.774,0.277-1.208,0.382c0.014,0.07-0.08,0.09-0.122,0.07c-0.163-0.119-0.27,0.215-0.426,0
		c-0.143-0.014-0.307,0.103-0.449,0.02c-0.36,0.007-0.719-0.194-1.079-0.062c-0.191,0.036-0.365-0.181-0.55-0.007
		c-0.205-0.167-0.389,0-0.625-0.167c-0.256,0.111-0.482-0.11-0.726-0.062c-0.162-0.159-0.46-0.146-0.673-0.277
		c-0.301-0.042-0.492-0.348-0.805-0.417c-0.041-0.083-0.122-0.133-0.206-0.146c-0.1,0.056-0.186-0.098-0.298-0.07
		c-0.101-0.027-0.256-0.117-0.35-0.062c-0.191-0.09-0.32-0.242-0.531-0.265c-0.428-0.062-0.542-0.471-0.927-0.575
		c-0.007-0.034-0.042-0.027-0.064-0.042c-0.134,0.015-0.27-0.146-0.418-0.146c-0.116-0.083-0.278-0.174-0.292-0.361
		c-0.129-0.084-0.136-0.334-0.3-0.341c-0.013-0.249-0.276-0.152-0.347-0.347c-0.448-0.119-0.386-0.708-0.781-0.903
		c-0.174-0.132-0.486-0.152-0.541-0.388c-0.171-0.126-0.178-0.507-0.213-0.695c-0.149-0.118-0.243-0.299-0.44-0.423
		c-0.181-0.327-0.243-0.654-0.506-0.945c-0.078-0.201-0.185-0.396-0.178-0.597c-0.143-0.097,0.042-0.243-0.129-0.362
		c-0.121-0.125-0.163-0.298-0.185-0.451c-0.04-0.542-0.256-1.056-0.385-1.479c-0.097-0.146,0.054-0.271-0.026-0.424
		c0.072-0.069,0.013-0.138-0.014-0.201c0.085-0.125,0.014-0.277,0.094-0.402c-0.067-0.035-0.054-0.104-0.008-0.16
		c-0.059-0.292-0.315-0.625-0.085-0.937c-0.015-0.182,0.026-0.368-0.015-0.542c0.1-0.216-0.073-0.473,0.128-0.703
		c-0.081-0.124,0.021-0.243,0-0.354c0.171-0.313,0.11-0.59,0.292-0.896c0-0.188,0.104-0.347,0.084-0.562
		c0.107-0.277,0.243-0.451,0.305-0.737c0.087-0.034,0.108-0.172,0.123-0.242c0.183-0.125,0.142-0.34,0.325-0.465
		c0.151-0.514,0.577-0.777,0.719-1.285c0.087-0.09,0.143-0.292,0.258-0.32c0.299-0.312,0.555-0.631,0.854-0.923
		c0.3-0.159,0.577-0.347,0.802-0.583c0.156-0.382,0.563-0.41,0.813-0.701c0.259-0.188,0.59-0.229,0.836-0.41
		c0.428-0.118,0.793-0.292,1.14-0.521C31.046,62.045,31.352,61.844,31.623,61.727 M29.56,63.587l-0.719,0.278
		c-0.25,0.132-0.398,0.389-0.658,0.514c-0.337,0.423-0.65,0.868-0.935,1.312c-0.149,0.486-0.496,0.827-0.583,1.341
		c-0.035,0.09-0.048,0.201-0.068,0.277c-0.116,0.222,0.049,0.513-0.198,0.714c-0.045,0.25,0.007,0.584,0.198,0.793
		c-0.123,0.18-0.042,0.409,0,0.548c-0.007,0.09,0.094,0.146,0.094,0.223l-0.025,0.007l0.025,0.068h0.013
		c0.029-0.007,0.049,0.021,0.056,0.042c-0.007,0.028-0.014,0.035-0.049,0.035l0.035,0.076c0.548,0.18,0.952-0.319,1.493-0.277
		c0.136-0.029,0.236-0.125,0.379-0.098c0.198-0.153,0.367-0.119,0.61-0.236c0.823-0.494,1.706-0.625,2.539-1.084
		c0.313-0.125,0.705-0.152,1.011-0.312c0.34-0.265,0.787-0.362,1.142-0.515c0.357-0.02,0.833-0.146,1.131-0.396
		c0.094-0.229,0.428-0.327,0.327-0.611c-0.028-0.062-0.007-0.159-0.1-0.159c0.159-0.146-0.119-0.236-0.036-0.389
		c-0.013-0.152-0.149-0.257-0.204-0.403c-0.216-0.153-0.285-0.486-0.427-0.708c-0.156-0.125-0.305-0.154-0.412-0.272
		c-0.213-0.368-0.682-0.43-0.81-0.833c-0.149,0.062-0.074-0.152-0.258-0.104c-0.34-0.126-0.659-0.084-0.976-0.265
		c-0.597,0.007-1.228-0.188-1.785,0.146c-0.084-0.041-0.149-0.027-0.226,0.015C30.001,63.469,29.683,63.373,29.56,63.587"/>
	<path fill="#ED7D00" d="M31.905,57.289c-0.081,0.055,0.007,0.118-0.055,0.16c-0.087,0.013-0.101,0.089-0.167,0.131
		c0.025,0.049,0.06,0.076,0.025,0.125c-0.039,0.027-0.116-0.013-0.149,0.056c0.111,0.097-0.007,0.181-0.067,0.25
		c-0.042,0.076-0.114,0-0.169-0.021c0.027-0.077,0.121-0.167,0.149-0.223c0.198-0.007-0.062-0.318,0.211-0.27
		c0.025-0.048-0.021-0.097,0.032-0.153c0.136,0.021,0.02-0.264,0.191-0.146c0-0.063-0.055-0.041-0.028-0.111
		c0.028-0.069,0.171-0.076,0.063-0.188c0.033-0.055,0.143-0.055,0.107-0.16c0.007-0.09,0.249-0.027,0.114-0.152
		c0.049-0.055,0.097-0.125,0.184-0.139c-0.013-0.042-0.035-0.084,0-0.125c0.029,0,0.049-0.013,0.071,0
		c0.013,0.029-0.015,0.056-0.029,0.098c-0.055-0.008-0.035,0.055-0.042,0.09c-0.081,0.132-0.149,0.229-0.162,0.375
		C32.047,57.004,32.041,57.184,31.905,57.289 M29.016,60.511c-0.042,0.028-0.125,0-0.132,0.077l0.022,0.02
		C29.009,60.691,29.022,60.559,29.016,60.511 M30.318,57.872c-0.014-0.035-0.055-0.062-0.09-0.035
		c-0.007,0.042-0.081,0.091-0.032,0.132C30.234,57.913,30.297,57.921,30.318,57.872 M30.567,57.289c0-0.028-0.006-0.063-0.006-0.098
		c-0.021,0.021-0.021,0.049-0.036,0.049l0.007,0.007c-0.03,0-0.052,0.034-0.065,0.014c-0.068-0.014-0.129,0.104-0.197,0.153
		c0.028,0.027,0.068,0,0.114-0.007c0.157,0.09,0.09-0.104,0.178-0.14L30.567,57.289z M30.297,57.58
		c-0.042-0.014-0.057,0.049-0.102,0.028l-0.006-0.028c-0.014,0.015-0.007,0.035,0,0.042c0.039,0.014,0.052,0.07,0.108,0.056
		C30.318,57.636,30.324,57.608,30.297,57.58 M30.126,57.692l0.007,0.013c-0.035,0.036-0.1,0-0.136,0
		c-0.006,0.084,0.009,0.174,0.081,0.208C30.12,57.851,30.25,57.741,30.126,57.692 M29.638,58.456c-0.007,0-0.007,0.014-0.032,0.014
		l0.007,0.036C29.638,58.505,29.686,58.469,29.638,58.456 M28.592,59.768c-0.039-0.069-0.059,0.007-0.101-0.015v0.132
		C28.568,59.92,28.592,59.81,28.592,59.768 M28.77,58.684c-0.022-0.014-0.052-0.056-0.087-0.027l-0.007-0.029
		c-0.055,0.029-0.09,0.063-0.142,0.09c-0.042,0.042-0.029,0.084,0.013,0.084c0.007,0,0,0-0.013-0.021l0.035-0.008
		c0.023,0.008,0.017,0.028,0.023,0.035V58.9C28.675,58.852,28.748,58.774,28.77,58.684 M28.954,58.24
		c-0.029-0.014-0.029-0.042-0.029-0.062c-0.042-0.021-0.052,0.006-0.087,0.02l-0.02-0.014c-0.022,0.028-0.014,0.118-0.101,0.084
		c-0.077,0.09,0,0.146,0.059,0.201C28.954,58.497,28.853,58.268,28.954,58.24 M31.109,53.748l0.028-0.007
		c0.021-0.056,0.062-0.125,0.021-0.181c-0.066-0.076-0.086,0.069-0.163,0c-0.02,0.069-0.059,0.125,0,0.201l0.013-0.02l0.007,0.034
		c-0.007,0.021-0.033,0.021-0.055,0.035c0.021,0.048,0,0.118,0.077,0.146C31.131,53.955,31.137,53.816,31.109,53.748 M30.065,55.636
		c-0.039,0-0.129-0.021-0.087,0l0.014,0.006c-0.021,0.014-0.027,0.014-0.034,0l0.007,0.028h-0.029v0.02
		c-0.045,0.008-0.052,0.063-0.087,0.084v-0.021c-0.007,0.048,0.049,0.069,0.08,0.104c0-0.022,0.007-0.022,0.029-0.022
		c0.007,0.022,0.007,0.022,0,0.042C29.998,55.823,30.147,55.713,30.065,55.636 M28.229,59.011c0.034-0.056,0.12-0.076,0.12-0.152
		c-0.08,0.013-0.198-0.028-0.236,0.09c0.059,0.104-0.097,0.098-0.156,0.132c-0.028,0.049-0.035,0.112-0.007,0.125
		c0.066,0,0.143-0.013,0.15-0.098C28.145,59.031,28.151,59.025,28.229,59.011 M30.839,53.991c-0.052,0.006-0.087,0.035-0.094,0.09
		c0,0.021,0.035,0.021,0.042,0.049C30.846,54.115,30.936,54.003,30.839,53.991 M29.658,56.191l-0.072-0.041
		c-0.035-0.071-0.07,0.014-0.112,0.014l0.057-0.007c-0.015,0.083-0.109,0.159-0.094,0.249c-0.042,0.029-0.015-0.062-0.049-0.083
		c-0.042,0.042-0.136,0.063-0.122,0.153l0.042-0.014c0.007,0.014,0.007,0.035,0.039,0.049c0.075,0.042,0.11-0.076,0.142-0.146
		c-0.006,0-0.025,0.015-0.025,0c-0.014-0.013,0-0.02,0-0.042c0.025,0,0.081-0.027,0.081,0.022
		C29.605,56.323,29.631,56.233,29.658,56.191 M30.888,53.782c0.048-0.104-0.062-0.077-0.123-0.063
		c-0.02,0.022-0.082,0.022-0.055,0.077h0.007l0.015,0.062c0.02-0.028,0.033,0.014,0.048,0.042
		C30.832,53.872,30.866,53.837,30.888,53.782 M27.909,59.26c-0.036-0.006-0.062-0.062-0.101-0.02
		c-0.062,0.036,0.014,0.083,0.007,0.117C27.834,59.302,27.957,59.351,27.909,59.26 M27.53,59.782c0.038-0.028,0.142,0,0.1-0.098
		c-0.049-0.02-0.1-0.02-0.127,0.015L27.53,59.782z M27.51,59.836l-0.007-0.026c-0.029,0-0.049,0.007-0.049,0.048L27.51,59.836z
		 M29.421,55.9c0.052-0.077-0.056-0.063-0.075-0.111c-0.025,0.014,0.013,0.048-0.032,0.048l-0.007-0.013h-0.021
		c-0.028,0.035-0.097,0.056-0.077,0.118l-0.02,0.015l0.013,0.013c0.007-0.028,0.007-0.048,0.036-0.048
		c-0.015,0.055-0.015,0.11-0.036,0.139l0.036-0.007l0.006,0.027c0.042,0,0.049,0,0.076-0.02c0.045-0.007,0.067-0.069,0.074-0.083
		C29.421,55.976,29.421,55.927,29.421,55.9 M28.711,57.108c0.072-0.056,0-0.125,0-0.174c-0.057,0.049-0.119,0.098-0.143,0.153
		C28.614,57.129,28.675,57.081,28.711,57.108 M28.647,57.219c0-0.035-0.056-0.028-0.062-0.028c-0.039,0.028-0.174,0.021-0.121,0.111
		c0.013,0,0.082-0.021,0.104,0.042C28.641,57.323,28.585,57.24,28.647,57.219 M28.391,57.372c-0.035-0.028-0.077-0.007-0.097,0.035
		c0.02,0.02,0.02,0.042,0.028,0.042C28.362,57.441,28.371,57.407,28.391,57.372 M27.738,58.087v-0.014l-0.027,0.007
		c0-0.007-0.006-0.021,0-0.028c-0.006,0-0.059,0.008-0.052-0.027c-0.015,0.027-0.007,0.027-0.007,0.035l-0.022,0.014
		c0,0.104-0.114,0.049-0.169,0.083l0.013,0.083l0.036-0.014l0.027,0.042l0.018-0.007l0.013,0.041
		C27.704,58.302,27.679,58.178,27.738,58.087 M27.503,58.414c0.013-0.042-0.022-0.083-0.029-0.119
		c-0.055,0.007-0.178,0.048-0.198,0.119c0.027,0.02,0.027-0.022,0.062-0.022l0.021,0.042l-0.028,0.021c0.007,0,0.048,0,0.042,0.021
		C27.425,58.505,27.474,58.456,27.503,58.414 M25.908,60.532c-0.041,0-0.049,0.035-0.069,0.056l0.007,0.013
		C25.867,60.581,25.926,60.581,25.908,60.532 M33.058,56.15c-0.007,0.014-0.014,0.055-0.052,0.055l-0.021-0.055
		c-0.075,0.014-0.055,0.131-0.075,0.194c0.02,0.104,0.006,0.104-0.067,0.188c0,0-0.02,0-0.02-0.022
		c-0.077-0.062,0.087-0.146-0.028-0.201c-0.02-0.014,0.063-0.104-0.02-0.076c0.007,0.069-0.065,0.089-0.114,0.131
		c-0.178,0.369-0.278,0.667-0.476,1.001c-0.178,0.312-0.401,0.604-0.592,0.889c-0.332,0.52-0.759,0.986-1.138,1.472
		c-0.028,0.084-0.129,0.132-0.171,0.222c-0.062,0.028-0.087,0.098-0.176,0.083c-0.052,0.272-0.327,0.245-0.427,0.459
		c-0.074,0.097-0.223,0.11-0.292,0.229c-0.101,0.015-0.149,0.112-0.229,0.119c0.044-0.091,0.263-0.091,0.201-0.25
		c0.062-0.021,0.171-0.007,0.185-0.125c0.026,0,0.087,0.028,0.121-0.027c-0.034-0.243,0.306-0.202,0.333-0.452
		c0.081-0.056,0.198-0.056,0.191-0.173c0.081-0.042,0.108-0.146,0.203-0.175c0.056-0.117,0.176-0.27,0.259-0.381
		c0.136-0.049,0.143-0.229,0.285-0.299c0.072-0.201,0.278-0.347,0.379-0.597c-0.022-0.09,0.007-0.104,0.049-0.16
		c0.02-0.014,0.085-0.02,0.079-0.097c0-0.048-0.085-0.048-0.121-0.076c-0.029,0-0.062,0.035-0.062,0.062l0.027,0.035
		c-0.143,0.02-0.108,0.146-0.215,0.194c-0.049,0.097-0.097,0.236-0.213,0.256c0.056,0.139-0.176,0.084-0.114,0.215
		c-0.107-0.014-0.094,0.188-0.213,0.083c-0.052,0.014-0.079,0.077-0.079,0.125l0.007,0.021c0.042-0.007,0.052-0.062,0.101-0.049
		c0.006,0.049-0.029,0.077-0.036,0.111c-0.045-0.007-0.072,0.027-0.1,0v-0.062c-0.156-0.021-0.042,0.188-0.205,0.174
		c-0.052,0.068-0.136,0.097-0.142,0.194c-0.045,0.097-0.143,0.09-0.195,0.173c-0.149-0.062-0.246,0.091-0.402,0.105
		c-0.061,0.104-0.195,0.172-0.167,0.298c-0.049,0.014-0.091,0.014-0.132,0.034c0.008,0.09-0.15,0.034-0.135,0.161
		c-0.015,0.048-0.157,0.041-0.108,0.146c-0.041,0.027-0.086,0.056-0.121,0.118c-0.007,0-0.007-0.015-0.007-0.028l-0.015,0.013
		c-0.013-0.083-0.079-0.083-0.134-0.083c-0.07,0.083-0.171,0.139-0.271,0.201c0.021,0.042-0.069,0.112,0.021,0.132l0.032,0.014
		c-0.072,0.063-0.032,0.18-0.129,0.146c-0.02-0.028-0.058-0.028-0.085-0.056c0.04-0.028,0.1-0.076,0.114-0.132
		c-0.094,0.062-0.25-0.084-0.256,0.069c-0.057,0.09-0.158,0.111-0.213,0.174c-0.188-0.022-0.229,0.214-0.399,0.201
		c-0.077,0.076-0.256-0.007-0.198,0.139c-0.216-0.014-0.305,0.243-0.514,0.201c-0.062,0.07-0.169,0.07-0.24,0.062
		c0-0.11,0.177-0.055,0.171-0.153l0.062-0.034c-0.007-0.014,0.007-0.027,0.007-0.048c0.1,0,0.122-0.09,0.178-0.139
		c0.149-0.09,0.363-0.076,0.427-0.284c0.052,0,0.087-0.007,0.094-0.056c0-0.042-0.036-0.056-0.042-0.07
		c0-0.049,0.042-0.091,0.055-0.055c0.25-0.049,0.333-0.285,0.535-0.396c0.035-0.036,0.104-0.049,0.091-0.119
		c0.107-0.062,0.1-0.173,0.222-0.194c-0.008-0.055,0.027-0.117,0.069-0.132c0.066-0.021,0.052-0.153,0.143-0.146
		c0,0,0.013,0.014,0.013,0.027c0.022-0.013,0.022-0.013,0.039-0.013v0.013c0.006,0,0.028-0.013,0.035-0.035
		c-0.029-0.048-0.007-0.11-0.007-0.152l0.055-0.02c0.033,0.055-0.015,0.208,0.101,0.18c0.042,0,0.042-0.049,0.068-0.083
		c0-0.042-0.033-0.049-0.062-0.07c0.035-0.041,0.028-0.097,0.035-0.146v0.007h0.026c-0.042,0.056-0.026,0.125-0.02,0.202
		c0.042,0.021,0.1,0,0.107-0.034c0.022-0.055,0.143-0.139,0.035-0.208c0.049-0.014,0.079-0.028,0.121-0.062
		c-0.007-0.098-0.107,0-0.156-0.056c0-0.069,0.097-0.035,0.09-0.091c0.023,0.021,0.059,0.049,0.107,0.056l0.052-0.014l-0.052-0.097
		l0.029-0.007c0.007-0.021,0.023-0.069,0.051-0.084c-0.013,0.035,0.021,0.104,0.084,0.084c0.034-0.028,0.134-0.028,0.149-0.132
		l-0.015-0.006l-0.134,0.027c0-0.034-0.028-0.083,0-0.125c0.014,0.021,0.027-0.007,0.059-0.007c0.048-0.028-0.025-0.049,0-0.097
		h0.026l0.049,0.146c0.067-0.049,0.123-0.098,0.164-0.146c-0.007-0.042-0.015-0.078-0.042-0.084c0.142-0.097-0.156-0.25,0.062-0.208
		h0.143c0.006,0.055-0.09,0.042-0.048,0.097c0.142-0.006,0.171-0.153,0.292-0.194c0.028-0.056,0.129-0.097,0.094-0.194
		c-0.006-0.042-0.02-0.07-0.079-0.091c-0.029,0.021-0.042,0.028-0.049,0.056c0.007,0.035,0.013,0.055-0.015,0.09
		c-0.094-0.035-0.107,0.048-0.156,0.077c-0.052-0.077,0.205-0.132,0.035-0.229c-0.028-0.112,0.257-0.112,0.062-0.174
		c-0.013-0.062-0.062-0.014-0.097-0.028c-0.007-0.014-0.014,0.014-0.025,0.028c0.087,0.126-0.13,0.139-0.02,0.271
		c0,0.02-0.007,0.02-0.042,0.02l-0.027-0.02c0.007-0.035,0.027-0.042,0.007-0.062l-0.074,0.021c0.025,0.042,0,0.097-0.042,0.104
		c-0.055,0.028-0.055-0.104-0.114-0.042c-0.013,0.07,0.032,0.097,0,0.16c-0.104,0.007-0.226,0-0.274,0.112
		c0,0.007,0.015,0.042,0,0.055c-0.072-0.014-0.065-0.077-0.107-0.097c-0.059-0.015-0.087,0.042-0.065,0.083
		c0.013,0.021,0.006,0.056-0.022,0.097c-0.007,0.049-0.056,0.153-0.027,0.229l-0.007-0.021c-0.094,0.042-0.164,0.146-0.265,0.188
		c-0.09,0.021-0.163,0.077-0.205,0.159c-0.087-0.083-0.107,0.056-0.184,0.084c0.028,0.006,0,0.034-0.007,0.062
		c-0.052,0.006-0.115-0.035-0.136,0.035l-0.023,0.056c-0.057-0.068-0.099-0.097-0.171-0.028c0,0.07-0.013,0.139-0.083,0.119
		c-0.02-0.021-0.027,0.006-0.059,0.006c-0.062,0.07,0.032,0.223-0.11,0.194l-0.052,0.007c0.007-0.013,0.034-0.083,0.086-0.131
		c0-0.042-0.034-0.042-0.052-0.063c-0.042,0.014-0.049,0.077-0.076,0.111c-0.029-0.034-0.067,0-0.107,0
		c-0.029,0.105-0.249,0.035-0.171,0.16c-0.136,0.11-0.321,0.166-0.421,0.312c-0.184-0.075-0.149,0.245-0.333,0.181
		c-0.049,0.049,0.008,0.118-0.04,0.14c-0.074-0.007-0.087-0.118-0.171-0.049c-0.032,0.118-0.101,0.152-0.208,0.181l0.014,0.048
		c-0.143-0.035-0.22,0.16-0.369,0.111c-0.078-0.042-0.127,0.028-0.221,0.042c-0.035,0.034,0,0.062,0.037,0.104
		c0.028,0.021,0.071,0,0.098,0.028c-0.083-0.028-0.157,0.083-0.238,0.027c-0.054,0.014-0.102,0.029-0.109,0.083
		c0.021,0.042-0.042,0.098-0.072,0.125c-0.055,0.034-0.149,0.034-0.149,0.132c-0.104,0.091-0.362,0.007-0.355,0.181
		c-0.134,0.021-0.134,0.208-0.277,0.159c-0.07,0.097-0.191,0.049-0.278,0.139c-0.116,0.098-0.22,0.084-0.307,0.209l-0.17,0.056
		c0.007,0.02,0,0.041-0.007,0.055c-0.028,0.02-0.041-0.014-0.073-0.021l-0.007-0.034c0.143-0.015,0.25-0.132,0.344-0.223
		c0.049-0.09,0.142-0.174,0.198-0.229c0.015-0.083-0.069-0.048-0.107-0.062c-0.075,0.021-0.156,0.042-0.211,0.007
		c-0.094-0.02,0.02-0.098-0.074-0.111l0.094-0.021c0-0.027,0.048-0.069,0.028-0.139c0.042,0,0.065,0,0.072-0.049
		c-0.007-0.027-0.014-0.076-0.065-0.083c-0.048,0-0.09,0.068-0.09,0.132c-0.059-0.049-0.087,0.042-0.114,0.048
		c0.006,0.056,0.02,0.077,0.04,0.111c-0.198-0.097-0.169,0.263-0.347,0.166c-0.114,0.021-0.121,0.126-0.236,0.097
		c-0.097,0.083-0.239,0.112-0.312,0.209c-0.114,0.007-0.205,0.117-0.32,0.014c-0.007,0.035-0.072,0.035-0.042,0.069
		c-0.045,0.048-0.114-0.021-0.163-0.035c0.077-0.07,0.198-0.083,0.233-0.188c0.035-0.07,0.101-0.119,0.178-0.112
		c0.007,0,0.03-0.007,0.065-0.007c0.013-0.055,0.02-0.131,0.013-0.166c0.042-0.014,0.048,0.097,0.123,0.042
		c0.027-0.132,0.191-0.112,0.191-0.25c0.048,0,0.143,0,0.143-0.076c0.013-0.049,0.075-0.118,0.027-0.181
		c-0.021-0.222,0.236-0.007,0.229-0.236c0.084-0.02,0.129-0.076,0.156-0.159c0.028,0.027,0.042-0.007,0.07-0.007
		c0.101-0.097,0.183-0.167,0.27-0.257c0.006-0.083,0.149-0.07,0.184-0.174c0-0.056,0.087-0.029,0.122-0.063
		c0.049-0.111,0.169-0.167,0.198-0.277c0.072-0.069,0.305-0.042,0.237-0.201c0.127,0.041,0.198-0.104,0.263-0.174l-0.014-0.056
		c0.098-0.029,0.233-0.055,0.278-0.181c-0.039-0.055,0.117-0.131-0.008-0.194c0.008-0.042,0.049-0.013,0.07-0.006
		c0.042,0.048,0.114,0,0.156-0.028c0-0.118,0.021-0.188,0.136-0.25c0.027-0.049,0.107-0.076,0.113-0.173
		c0.042,0,0.098,0,0.098-0.063c0-0.02-0.042-0.034-0.062-0.068c0.049-0.021,0.135-0.021,0.163-0.062l-0.014-0.042
		c0.056-0.022,0.049,0.048,0.114,0.048c-0.085,0-0.065,0.111-0.013,0.146c0.041,0.062,0.07-0.022,0.119,0
		c0.065-0.153-0.191-0.236,0-0.348c-0.029-0.125,0.188-0.138,0.045-0.215c0.055,0,0.114-0.055,0.176-0.104
		c0.022-0.015,0.022-0.055,0.07-0.055h0.03c-0.12,0.104,0.029,0.118,0.029,0.208c0.077,0.036,0.091-0.062,0.149-0.076
		c0.029-0.041-0.007-0.091,0.029-0.131c0.027,0,0.055,0,0.079-0.014c0.035-0.021,0.014-0.049,0-0.062v0.014l-0.03-0.021l0.006-0.014
		c0.024,0.021,0.065,0.041,0.094,0.021c0.034-0.049-0.007-0.091-0.007-0.14c0-0.068,0.121-0.062,0.069-0.152
		c0.065-0.056,0.208-0.034,0.215-0.166c0-0.028-0.034-0.077-0.007-0.112c0.029,0.028,0.048,0.028,0.083,0.007
		c0.052-0.076,0.123-0.131,0.065-0.242c0.077-0.077,0.227-0.105,0.227-0.25c0.1-0.021,0.107-0.153,0.208-0.173
		c0.014-0.035-0.007-0.07,0.028-0.09c0.042,0.007,0.081-0.021,0.114-0.035c0.083-0.069-0.034-0.139-0.014-0.194
		c-0.094,0.013-0.135,0.084-0.208,0.125c-0.049,0.125-0.333,0.104-0.198,0.319c-0.042-0.035-0.094,0.022-0.129,0.028l-0.029,0.083
		c-0.007-0.035-0.04-0.035-0.04-0.062c0.156-0.125,0.191-0.326,0.34-0.431c0.007-0.013,0.027-0.083,0.056-0.097
		c0.027-0.208,0.221-0.221,0.291-0.375c0.066-0.083-0.035-0.118-0.028-0.187l0.035,0.02c-0.007,0.007,0,0.014,0,0.021
		c0.045,0.034,0.087,0.041,0.101-0.008c0.028-0.041,0.013-0.09,0.007-0.146h0.028H28.1c0.177,0.049-0.007-0.172,0.156-0.146
		c-0.021-0.034,0.013-0.098,0.058-0.098c0.143,0,0.029,0.098,0.077,0.181c0.074,0.014,0.101-0.035,0.123-0.11
		c0.02,0.041,0.055-0.007,0.079-0.007c0-0.035-0.006-0.083-0.023-0.153l-0.022,0.035l-0.013-0.042c-0.056-0.007-0.205,0.119-0.22,0
		c0.113-0.098,0.233-0.201,0.278-0.375l-0.023-0.063c0.065-0.042,0.243,0.174,0.27-0.02c-0.033-0.049-0.121,0.013-0.136-0.063
		c0-0.034,0.022-0.034,0.045-0.042c0.09,0.035,0.112,0.083,0.2,0.083c0.027-0.021,0.075-0.021,0.085-0.069
		c-0.149-0.152,0.178-0.104,0.078-0.292c0.027-0.056,0.114-0.049,0.129-0.133c-0.022-0.035-0.009-0.083-0.049-0.09
		c-0.067,0.022-0.174,0.055-0.151,0.167c-0.023,0.007-0.065-0.021-0.085,0c-0.015,0.027-0.036,0.056-0.015,0.09
		c-0.056,0.076-0.127,0.202-0.222,0.153c0.007-0.062,0.059-0.062,0.079-0.077c-0.02-0.069,0.008-0.117,0.057-0.152
		c0.065-0.084,0.086-0.209,0.179-0.264c0.064-0.076-0.023-0.222,0.12-0.236c-0.015-0.027-0.029-0.062,0.007-0.104
		c0.044-0.008,0.128,0.034,0.135-0.063c-0.07-0.097,0.094-0.132,0.079-0.236c0.064,0.007,0.049-0.049,0.049-0.104
		c-0.027-0.048,0.035-0.083,0.042-0.104c0.045-0.035,0.019-0.146,0.081-0.181c0.035,0,0.035,0.062,0.087,0.049
		c0.02-0.021,0.007-0.056-0.025-0.056l-0.042-0.021c0.094-0.035-0.007-0.139,0.087-0.174c0.007-0.097,0.029-0.188,0.014-0.271
		c0.07,0.007,0.108-0.042,0.157-0.076c0.027-0.174,0.205-0.292,0.143-0.466l0.062-0.028c-0.035-0.076,0.052-0.083,0.059-0.132
		c0.055-0.119-0.013-0.285,0.136-0.354c0.02,0.027,0.062-0.034,0.083-0.056c0.014-0.042,0.014-0.076-0.028-0.111
		c0.101-0.042,0.116-0.174,0.107-0.25l-0.065-0.035c-0.021-0.049,0.02-0.049,0.028-0.069c0.065-0.021,0.065-0.083,0.072-0.112
		l-0.02-0.048l0.205-0.479c0-0.159,0.114-0.298,0.149-0.451c0.013-0.167,0.122-0.327,0.114-0.493
		c0.008-0.194,0.057-0.369,0.028-0.563c0.036-0.083-0.006-0.173,0.042-0.264c-0.07-0.187,0-0.389-0.07-0.583
		c0-0.118,0.094-0.056,0.157-0.056c0.121,0.132,0.211,0.265,0.347,0.382c0.059,0.208,0.243,0.375,0.263,0.618
		c0.028,0.098,0.157,0.119,0.136,0.223c0.107,0.173-0.007,0.367,0.101,0.535c-0.027,0.027-0.02,0.049-0.02,0.083l0.027-0.007
		c0.008,0.042,0.028,0.055,0.057,0.049c0.221-0.007,0.055-0.222,0.114-0.306c0.007-0.027,0.048-0.069,0.042-0.104
		c-0.035-0.104,0.072-0.215-0.021-0.312c0.116-0.007,0.028-0.188,0.171-0.139c0.026-0.021,0.02-0.076,0.02-0.118
		c-0.02,0-0.042,0.007-0.042,0c-0.02-0.035,0-0.069,0.022-0.097l0.035-0.013c0,0.027,0.03,0.027,0.045,0.034
		c-0.015,0.014,0,0.041,0.007,0.062c0.014,0.014,0.034,0,0.062,0l0.014-0.097c0.028,0.229,0.223-0.063,0.265,0.152
		c0.191,0.055,0.276,0.243,0.419,0.389c0.108,0.208,0.199,0.437,0.199,0.674c-0.015,0-0.015,0.042-0.015,0.069
		c0.036,0.089,0.101,0.118,0.136,0.18c0.074,0.083,0.087,0.223,0.191,0.265c0.171,0.208,0.136,0.493,0.223,0.749
		c0.014,0.466,0.062,0.924,0.083,1.389c-0.049,0.111,0.038,0.236-0.021,0.34c-0.042,0.639-0.104,1.25-0.253,1.868
		c0,0.104-0.129,0.174-0.081,0.271c-0.1,0.132-0.041,0.34-0.184,0.452c0.097,0.215-0.25,0.236-0.143,0.438
		c-0.014,0.104-0.052,0.181-0.127,0.25C33.051,56.045,33.12,56.115,33.058,56.15 M32.012,49.79c0.042-0.008,0.035-0.056,0.055-0.084
		c-0.027-0.049-0.079-0.021-0.094-0.049l-0.075,0.07c0.006,0.021,0.006,0.063,0.035,0.07C31.967,49.79,31.988,49.796,32.012,49.79
		 M30.033,52.643h-0.036l0.022-0.091c-0.055-0.006-0.149-0.006-0.198,0.035c0,0.056-0.028,0.098,0.027,0.118
		C29.904,52.705,30.006,52.741,30.033,52.643 M31.228,53.33c-0.049-0.007-0.083,0.028-0.119,0.062
		c0.035,0.042-0.059,0.112,0.042,0.132C31.214,53.483,31.3,53.4,31.228,53.33 M28.433,55.552c-0.091-0.062,0.032-0.188-0.078-0.195
		c0,0.029-0.069,0.029-0.042,0.084c0.008,0.021,0.042,0.021,0.042,0.035c-0.042,0.111-0.127-0.014-0.184-0.006
		c0,0.075-0.085,0.041-0.101,0.117c0.101,0.125-0.121,0.055-0.127,0.188c0.006,0.007,0.02,0.014,0.02,0.027
		c-0.049,0.028-0.042,0.098-0.049,0.154c-0.026,0-0.026,0.068-0.062,0.041l-0.019,0.034c0,0.014,0,0.028,0.019,0.028
		c0.062-0.083,0.062,0.056,0.11,0.056l0.164-0.215c0-0.098-0.099-0.07-0.164-0.098c-0.007,0-0.007-0.014,0-0.027
		c0.081-0.028,0.136-0.028,0.208,0.007c0.049-0.035,0-0.083-0.027-0.111C28.213,55.608,28.371,55.684,28.433,55.552 M28.77,54.858
		c0.042-0.042,0.049-0.104,0.035-0.139c-0.035,0-0.103,0.048-0.129,0L28.546,54.9c0.039,0.013,0.022,0.068,0.045,0.09
		C28.702,55.011,28.675,54.858,28.77,54.858 M27.011,57.171c0.022-0.014,0.022-0.056,0-0.062c-0.026,0.007-0.026,0.027-0.033,0.027
		L27.011,57.171z M27.161,56.865c-0.014-0.021-0.065-0.014-0.065,0.021C27.127,56.886,27.161,56.899,27.161,56.865 M27.218,56.691
		l-0.057-0.035c-0.007,0.035-0.034,0.056-0.014,0.077C27.161,56.719,27.196,56.691,27.218,56.691 M26.429,58.123l-0.049-0.056
		c-0.059,0.034-0.065,0.125-0.1,0.173C26.308,58.191,26.395,58.184,26.429,58.123 M26.7,57.546c0.014-0.021,0-0.056-0.028-0.09
		l-0.052,0.02c0.015,0.049-0.062,0.022-0.027,0.063L26.7,57.546z M24.495,61.289c0.029-0.048,0.029-0.076,0-0.111
		c-0.042-0.027-0.1-0.027-0.142,0.014c-0.027,0.021-0.101,0.049-0.049,0.118c-0.045,0-0.059,0-0.087,0.028
		c-0.042,0.048,0.035,0.076,0.049,0.111c0.038-0.021,0.073-0.014,0.08-0.035C24.395,61.365,24.423,61.316,24.495,61.289
		 M25.832,58.573l-0.029,0.049c0,0.013,0.036,0.013,0.042,0.042C25.874,58.622,25.818,58.608,25.832,58.573 M23.62,61.948
		c-0.042,0-0.087-0.035-0.129,0c-0.02,0.014-0.02,0.021,0,0.035l-0.027,0.007c0.007,0.049,0.034,0.111,0.1,0.125
		C23.675,62.087,23.578,62.032,23.62,61.948"/>
	<path fill="#1D1D1B" d="M56.001,49.288c0-0.958-0.121-1.089-0.976-1.173c-0.062,0-0.104-0.069-0.104-0.208
		c0-0.21,0.055-0.244,0.767-0.333c1.108-0.119,2.063-0.557,2.19-0.557c0.042,0,0.149,0.049,0.149,0.139
		c0,0.736-0.136,0.91-0.136,3.09v6.604c0,0.55,0.136,0.599,0.776,0.688c0.1,0.028,0.134,0.118,0.134,0.202
		c0,0.069-0.027,0.229-0.114,0.236c-2.004,0.34-2.497,0.528-2.552,0.528c-0.049,0-0.122-0.036-0.122-0.091
		c0-0.083,0.015-0.333,0.035-0.736c-0.576,0.555-1.322,0.827-2.118,0.827c-2.006,0-3.051-1.535-3.051-3.41
		c0-1.813,1.458-3.688,3.357-3.688c0.617,0,1.236,0.097,1.764,0.417V49.288z M56.001,53.449c0-1.119-0.774-1.376-1.26-1.376
		c-1.448,0-1.656,1.577-1.656,2.743c0,1.091,0.357,2.861,1.68,2.861c0.708,0,1.236-0.389,1.236-1.243V53.449z"/>
	<path fill="#1D1D1B" d="M62.021,54.337c-0.007,0.174-0.023,0.278-0.023,0.333c0,1.208,0.67,2.632,2.426,2.632
		c1.486,0,1.764-1.013,1.962-1.013c0.143,0,0.292,0.062,0.292,0.221c0,0.202-0.741,1.994-3.15,1.994
		c-2.835,0-3.506-2.32-3.506-3.501c0-1.958,1.371-3.598,3.398-3.598c2.477,0,3.187,1.833,3.187,2.597
		c0,0.314-0.059,0.334-0.308,0.334H62.021z M63.272,53.803c1.173,0,1.302-0.091,1.302-0.541c0-0.764-0.42-1.328-1.215-1.328
		c-0.868,0-1.289,1.056-1.289,1.813C62.478,53.775,62.86,53.803,63.272,53.803"/>
	<path fill="#1D1D1B" d="M72.393,49.288c0-0.958-0.127-1.089-0.975-1.173c-0.062,0-0.098-0.069-0.098-0.208
		c0-0.21,0.071-0.244,0.748-0.333c1.115-0.119,2.09-0.557,2.204-0.557c0.049,0,0.143,0.042,0.143,0.139
		c0,0.736-0.121,0.91-0.121,3.09v6.952c0,0.542,0.347,0.591,0.42,0.591c0.551,0.021,0.632,0.083,0.632,0.188
		c0,0.291,0,0.34-0.136,0.34c-0.605,0-1.222-0.021-1.878-0.021c-0.638,0-1.264,0.021-1.862,0.021c-0.127,0-0.127-0.049-0.127-0.34
		c0-0.105,0.069-0.167,0.617-0.188c0.08,0,0.434-0.048,0.434-0.591V49.288z"/>
	<path fill="#1D1D1B" d="M81.946,57.198c0,0.202,0.042,0.382,0.285,0.382c0.396,0,0.422-0.361,0.638-0.361
		c0.035,0,0.227,0.159,0.227,0.215c0,0.235-0.865,1.07-1.793,1.07c-0.565,0-1.079-0.348-1.222-0.925
		c-0.531,0.542-1.27,0.925-2.041,0.925c-0.883,0-1.528-0.473-1.528-1.39c0-0.91,0.725-1.292,1.159-1.479l2.39-1.021v-1.382
		c0-0.541-0.605-0.965-1.201-0.965c-0.272,0-0.91,0.375-0.91,0.612c0,0.09,0.204,0.382,0.204,0.548c0,0.55-0.347,0.827-0.917,0.827
		c-0.385,0-0.725-0.229-0.725-0.681c0-0.458,0.292-0.756,1.399-1.402c1.069-0.646,1.253-0.681,1.837-0.681
		c2.198,0,2.198,1.438,2.198,1.855V57.198z M80.061,55.15c-1.269,0.514-1.716,0.708-1.716,1.652c0,0.313,0.143,0.778,0.691,0.778
		c0.278,0,1.025-0.312,1.025-0.61v-0.167V55.15z"/>
	<path fill="#1D1D1B" d="M87.526,53.025c-0.314-0.722-0.449-0.777-0.984-0.777c-0.083,0-0.156-0.112-0.156-0.265
		c0-0.131,0.072-0.263,0.163-0.263c0.622,0,1.233,0.055,1.845,0.055c0.631,0,1.271-0.055,1.976-0.055
		c0.094,0,0.107,0.076,0.107,0.256c0,0.174-0.035,0.271-0.462,0.271c-0.107,0-0.441,0.125-0.441,0.396
		c0,0.473,1.136,3.021,1.373,3.437c0.205-0.492,1.409-2.999,1.409-3.339c0-0.321-0.243-0.493-0.784-0.493
		c-0.255,0-0.285-0.077-0.285-0.265c0-0.131,0.03-0.263,0.12-0.263c0.407,0,0.862,0.055,1.324,0.055
		c0.427,0,0.888-0.055,1.315-0.055c0.1,0,0.107,0.076,0.107,0.159c0,0.216,0,0.369-0.107,0.369c-0.399,0-0.69,0.035-0.848,0.368
		c-0.681,1.485-2.048,4.416-2.673,5.617c-0.114,0.181-0.184,0.299-0.42,0.299c-0.26,0-0.409-0.507-0.739-1.243L87.526,53.025z"/>
	<path fill="#1D1D1B" d="M95.556,53.748c0-0.91-0.228-1.007-0.902-1.167c-0.136-0.035-0.143-0.083-0.143-0.229
		c0-0.069,0.007-0.16,0.062-0.167c2.089-0.382,2.672-0.951,2.76-0.951c0.077,0,0.185,0.104,0.185,0.208
		c0,0.104-0.091,0.861-0.091,2.285v3.472c0,0.549,0.362,0.591,0.441,0.591c0.54,0.021,0.625,0.083,0.625,0.188
		c0,0.291,0,0.34-0.142,0.34c-0.59,0-1.222-0.021-1.879-0.021c-0.638,0-1.256,0.021-1.839,0.021c-0.143,0-0.143-0.049-0.143-0.34
		c0-0.105,0.062-0.167,0.625-0.188c0.074,0,0.441-0.042,0.441-0.591V53.748z M96.459,47.636c0.611,0,1.104,0.479,1.104,1.098
		c0,0.603-0.493,1.09-1.104,1.09c-0.612,0-1.086-0.487-1.086-1.09C95.373,48.115,95.847,47.636,96.459,47.636"/>
	<path fill="#1D1D1B" d="M101.733,54.337c-0.021,0.174-0.038,0.278-0.038,0.333c0,1.208,0.677,2.632,2.439,2.632
		c1.48,0,1.765-1.013,1.962-1.013c0.129,0,0.292,0.062,0.292,0.221c0,0.202-0.739,1.994-3.163,1.994c-2.83,0-3.5-2.32-3.5-3.501
		c0-1.958,1.379-3.598,3.392-3.598c2.483,0,3.195,1.833,3.195,2.597c0,0.314-0.067,0.334-0.317,0.334H101.733z M102.969,53.803
		c1.175,0,1.309-0.091,1.309-0.541c0-0.764-0.418-1.328-1.193-1.328c-0.896,0-1.302,1.056-1.302,1.813
		C102.174,53.775,102.57,53.803,102.969,53.803"/>
	<path fill="#1D1D1B" d="M52.506,67.956c0.048,0,0.1,0.11,0.1,0.43c0,0.36-0.022,0.36-0.251,0.36h-2.197v3.327
		c0,0.729,0.058,1.709,1.104,1.709c0.545,0,1.079-0.348,1.121-0.348c0.087,0,0.216,0.215,0.216,0.306
		c0,0.132-0.841,0.881-2.227,0.881c-1.302,0-2.106-0.59-2.106-1.652v-4.223h-0.845c-0.156,0-0.156-0.097-0.156-0.249
		c0-0.159,0.042-0.174,0.055-0.188c1.289-0.805,1.962-1.444,2.403-2.083c0.027-0.029,0.052-0.029,0.306-0.029
		c0.129,0,0.222,0.008,0.222,0.147c0,0.521-0.073,1.048-0.093,1.611H52.506z"/>
	<path fill="#1D1D1B" d="M54.238,69.663c0-1.264-0.362-1.264-1.01-1.264c-0.129,0-0.129-0.042-0.129-0.236
		c0-0.068,0.013-0.229,0.1-0.229c0.962-0.014,1.914-0.07,2.938-0.097v3.875c0,1.166,0.243,1.847,1.309,1.847
		c0.306,0,1.201-0.236,1.201-0.59v-3.306c0-1.264-0.364-1.264-1.003-1.264c-0.15,0-0.15-0.042-0.15-0.236
		c0-0.068,0.022-0.229,0.116-0.229c0.943-0.014,1.898-0.07,2.999-0.097c-0.028,0.812-0.062,1.631-0.062,2.159v3.125
		c0,0.361,0.026,0.507,0.425,0.507c0.149,0,0.269-0.041,0.424-0.041c0.08,0,0.135,0,0.135,0.194c0,0.256,0,0.298-0.162,0.312
		c-0.612,0.077-1.217,0.202-1.691,0.285c-0.462,0.139-0.819,0.243-0.91,0.243c-0.08,0-0.181-0.062-0.181-0.36
		c0-0.091,0.032-0.292,0.032-0.557c-0.622,0.479-1.459,0.917-2.264,0.917c-2.119,0-2.119-1.562-2.119-3.055V69.663z"/>
	<path fill="#1D1D1B" d="M67.793,65.407c0-0.958-0.114-1.104-0.969-1.18c-0.07,0-0.097-0.056-0.097-0.203
		c0-0.214,0.055-0.222,0.752-0.333c1.101-0.132,2.078-0.562,2.191-0.562c0.036,0,0.149,0.069,0.149,0.152
		c0,0.729-0.129,0.917-0.129,3.09v6.598c0,0.541,0.129,0.604,0.761,0.701c0.115,0.014,0.143,0.111,0.143,0.202
		c0,0.049-0.007,0.208-0.114,0.222c-1.998,0.34-2.49,0.528-2.559,0.528c-0.035,0-0.122-0.034-0.122-0.083
		c0-0.076,0.028-0.333,0.042-0.73c-0.589,0.549-1.298,0.813-2.111,0.813c-2.007,0-3.058-1.527-3.058-3.41
		c0-1.798,1.465-3.701,3.363-3.701c0.612,0,1.217,0.111,1.758,0.424V65.407z M67.793,69.588c0-1.14-0.774-1.39-1.244-1.39
		c-1.458,0-1.665,1.591-1.665,2.75c0,1.09,0.356,2.86,1.678,2.86c0.689,0,1.23-0.416,1.23-1.264V69.588z"/>
	<path fill="#1D1D1B" d="M72.473,69.872c0-0.91-0.208-1.028-0.875-1.175c-0.143-0.034-0.15-0.083-0.15-0.221
		c0-0.077,0.021-0.161,0.062-0.167c2.076-0.389,2.674-0.958,2.76-0.958c0.077,0,0.171,0.105,0.171,0.208
		c0,0.118-0.069,0.862-0.069,2.278v3.486c0,0.556,0.36,0.583,0.422,0.583c0.55,0.015,0.644,0.07,0.644,0.188
		c0,0.285,0,0.34-0.149,0.34c-0.591,0-1.201-0.013-1.871-0.013c-0.632,0-1.25,0.013-1.849,0.013c-0.149,0-0.149-0.055-0.149-0.34
		c0-0.118,0.077-0.173,0.64-0.188c0.056,0,0.413-0.027,0.413-0.583V69.872z M73.396,63.747c0.618,0,1.12,0.48,1.12,1.097
		c0,0.604-0.501,1.098-1.12,1.098c-0.604,0-1.093-0.493-1.093-1.098C72.304,64.227,72.793,63.747,73.396,63.747"/>
	<path fill="#1D1D1B" d="M82.036,73.323c0,0.188,0.049,0.382,0.292,0.382c0.382,0,0.409-0.36,0.632-0.36
		c0.049,0,0.243,0.146,0.243,0.201c0,0.236-0.875,1.076-1.816,1.076c-0.558,0-1.066-0.347-1.215-0.917
		c-0.541,0.535-1.27,0.917-2.041,0.917c-0.896,0-1.528-0.451-1.528-1.382c0-0.903,0.726-1.299,1.173-1.479l2.368-1.043v-1.374
		c0-0.528-0.596-0.959-1.193-0.959c-0.278,0-0.91,0.36-0.91,0.639c0,0.069,0.205,0.361,0.205,0.514c0,0.548-0.347,0.854-0.917,0.854
		c-0.386,0-0.726-0.251-0.726-0.695c0-0.466,0.278-0.758,1.399-1.409c1.076-0.625,1.247-0.681,1.83-0.681
		c2.205,0,2.205,1.438,2.205,1.86V73.323z M80.143,71.261c-1.267,0.514-1.708,0.722-1.708,1.667c0,0.312,0.149,0.777,0.69,0.777
		c0.271,0,1.017-0.312,1.017-0.61v-0.167V71.261z"/>
	<path fill="#1D1D1B" d="M84.928,69.872c0-0.91-0.213-1.028-0.896-1.175c-0.142-0.034-0.142-0.083-0.142-0.221
		c0-0.077,0.013-0.161,0.062-0.167c2.085-0.389,2.691-0.951,2.762-0.951c0.007,0,0.121,0.042,0.121,0.118
		c0,0.382-0.049,0.798-0.049,1.173c0.871-0.604,1.706-1.042,2.622-1.042c1.066,0,1.885,0.756,1.885,1.931v3.784
		c0,0.556,0.34,0.583,0.435,0.583c0.548,0.015,0.773,0.07,0.773,0.188c0,0.285,0,0.34-0.291,0.34c-0.599,0-1.215-0.013-1.862-0.013
		c-0.655,0-1.28,0.013-1.729,0.013c-0.127,0-0.127-0.055-0.127-0.34c0-0.118,0.065-0.173,0.483-0.188
		c0.072,0,0.434-0.027,0.434-0.583v-3.298c0-0.486-0.246-1.362-1.257-1.362c-0.372,0-1.059,0.264-1.301,0.556
		c-0.036,0.167-0.036,0.41-0.036,0.618v3.486c0,0.556,0.354,0.583,0.427,0.583c0.551,0.015,0.632,0.07,0.632,0.188
		c0,0.285,0,0.34-0.129,0.34c-0.604,0-1.222-0.013-1.885-0.013c-0.645,0-1.257,0.013-1.854,0.013c-0.151,0-0.151-0.055-0.151-0.34
		c0-0.118,0.09-0.173,0.634-0.188c0.079,0,0.44-0.027,0.44-0.583V69.872z"/>
	<path fill="#1D1D1B" d="M98.418,67.956c0.078,0,0.114,0.11,0.114,0.43c0,0.36-0.027,0.36-0.243,0.36h-2.205v3.327
		c0,0.729,0.074,1.709,1.091,1.709c0.56,0,1.094-0.348,1.143-0.348c0.086,0,0.208,0.215,0.208,0.306
		c0,0.132-0.848,0.881-2.226,0.881c-1.288,0-2.083-0.59-2.083-1.652v-4.223h-0.883c-0.142,0-0.142-0.097-0.142-0.249
		c0-0.159,0.028-0.174,0.055-0.188c1.275-0.805,1.949-1.444,2.403-2.083c0.032-0.029,0.052-0.029,0.316-0.029
		c0.118,0,0.198,0.008,0.198,0.147c0,0.521-0.065,1.048-0.08,1.611H98.418z"/>
	<path fill="#1D1D1B" d="M101.501,70.448c-0.028,0.181-0.039,0.271-0.039,0.334c0,1.222,0.67,2.652,2.427,2.652
		c1.492,0,1.771-1.021,1.962-1.021c0.149,0,0.292,0.07,0.292,0.216c0,0.201-0.754,1.993-3.155,1.993c-2.831,0-3.507-2.319-3.507-3.5
		c0-1.938,1.377-3.611,3.398-3.611c2.476,0,3.195,1.854,3.195,2.618c0,0.305-0.06,0.319-0.317,0.319H101.501z M102.729,69.921
		c1.174,0,1.309-0.084,1.309-0.536c0-0.75-0.413-1.32-1.208-1.32c-0.875,0-1.287,1.056-1.287,1.806
		C101.948,69.899,102.324,69.921,102.729,69.921"/>
	<path fill="#1D1D1B" d="M22.248,33.962c0-1.785-0.101-1.972-1.294-1.972c-0.206,0-0.389-0.083-0.389-0.18
		c0-0.389,0-0.417,0.26-0.417c0.861,0,1.716,0.062,2.583,0.062c0.854,0,1.711-0.062,2.565-0.062c0.257,0,0.279,0.028,0.279,0.417
		c0,0.097-0.207,0.18-0.386,0.18c-1.223,0-1.299,0.188-1.299,1.972v6.383c0,0.826,0.104,1.006,1.433,1.006
		c2.114,0,3.038-0.015,3.847-2.243c0.08-0.195,0.158-0.195,0.327-0.195c0.143,0,0.223,0.021,0.223,0.153
		c0,0.215-0.557,2.778-0.619,2.882c-0.045,0.076-0.129,0.076-0.229,0.076c-0.632,0-3.205-0.062-4.784-0.062
		c-2.348,0-3.122,0.062-3.941,0.062c-0.149,0-0.191-0.062-0.191-0.18c0-0.382,0.042-0.417,0.502-0.417
		c1.078,0,1.111-0.174,1.111-2.361V33.962z"/>
	<path fill="#1D1D1B" d="M33.621,38.033c-0.022,0.159-0.054,0.263-0.054,0.318c0,1.223,0.686,2.646,2.441,2.646
		c1.5,0,1.771-1.021,1.956-1.021c0.136,0,0.305,0.076,0.305,0.23c0,0.208-0.745,1.992-3.155,1.992c-2.843,0-3.514-2.319-3.514-3.494
		c0-1.951,1.378-3.61,3.392-3.61c2.49,0,3.201,1.847,3.201,2.604c0,0.319-0.059,0.334-0.315,0.334H33.621z M34.842,37.505
		c1.18,0,1.322-0.098,1.322-0.55c0-0.764-0.434-1.326-1.214-1.326c-0.875,0-1.295,1.056-1.295,1.827
		C34.062,37.483,34.435,37.505,34.842,37.505"/>
	<path fill="#1D1D1B" d="M45.061,39.941c0,1.583-1.493,2.257-2.864,2.257c-0.563,0-1.146-0.132-2.095-0.132
		c-0.055,0-0.163-0.062-0.163-0.104c0-0.493-0.292-1.507-0.292-1.778c0-0.021,0.059-0.049,0.201-0.049
		c0.09,0,0.253,0.042,0.278,0.071c0.875,1.381,1.329,1.402,1.976,1.402c0.128,0,1.073-0.063,1.073-1.069
		c0-1.473-3.361-0.799-3.361-3.196c0-1.443,1.399-2.249,2.681-2.249c0.875,0,1.718,0.18,2.051,0.243c0.039,0,0.08,0.062,0.08,0.098
		c0,0.437,0.25,1.542,0.25,1.652c0,0.049-0.013,0.11-0.093,0.11c-0.156,0-0.348,0-0.406-0.068c-0.34-0.639-0.881-1.444-1.72-1.444
		c-0.583,0-1.104,0.388-1.104,1c0,0.658,0.534,0.902,2.348,1.548C44.613,38.497,45.061,39.206,45.061,39.941"/>
	<path fill="#1D1D1B" d="M56.425,39.941c0,1.583-1.479,2.257-2.872,2.257c-0.555,0-1.145-0.132-2.099-0.132
		c-0.036,0-0.149-0.062-0.149-0.104c0-0.493-0.3-1.507-0.3-1.778c0-0.021,0.067-0.049,0.209-0.049c0.091,0,0.24,0.042,0.278,0.071
		c0.868,1.381,1.322,1.402,1.976,1.402c0.142,0,1.065-0.063,1.065-1.069c0-1.473-3.348-0.799-3.348-3.196
		c0-1.443,1.392-2.249,2.681-2.249c0.868,0,1.704,0.18,2.048,0.243c0.035,0,0.07,0.062,0.07,0.098c0,0.437,0.25,1.542,0.25,1.652
		c0,0.049-0.021,0.11-0.101,0.11c-0.149,0-0.354,0-0.392-0.068c-0.347-0.639-0.883-1.444-1.726-1.444c-0.577,0-1.104,0.388-1.104,1
		c0,0.658,0.542,0.902,2.348,1.548C55.984,38.497,56.425,39.206,56.425,39.941"/>
	<path fill="#1D1D1B" d="M59.932,38.033c-0.028,0.159-0.039,0.263-0.039,0.318c0,1.223,0.664,2.646,2.42,2.646
		c1.493,0,1.778-1.021,1.969-1.021c0.136,0,0.305,0.076,0.305,0.23c0,0.208-0.752,1.992-3.168,1.992
		c-2.837,0-3.507-2.319-3.507-3.494c0-1.951,1.386-3.61,3.385-3.61c2.491,0,3.203,1.847,3.203,2.604
		c0,0.319-0.054,0.334-0.304,0.334H59.932z M61.154,37.505c1.182,0,1.315-0.098,1.315-0.55c0-0.764-0.426-1.326-1.208-1.326
		c-0.875,0-1.302,1.056-1.302,1.827C60.373,37.483,60.748,37.505,61.154,37.505"/>
	<path fill="#1D1D1B" d="M66.899,37.457c0-0.925-0.211-1.029-0.895-1.175c-0.142-0.041-0.142-0.09-0.142-0.229
		c0-0.076,0.02-0.152,0.069-0.18c2.084-0.375,2.674-0.938,2.753-0.938c0.015,0,0.115,0.042,0.115,0.119
		c0,0.382-0.045,0.792-0.045,1.326c0.59-0.577,1.309-1.284,2.19-1.284c0.528,0,1.077,0.402,1.077,0.979
		c0,0.5-0.33,0.938-0.868,0.938c-0.861,0-0.861-0.682-1.389-0.682c-0.441,0-0.881,0.584-0.979,0.758V40.9
		c0,0.563,0.347,0.57,0.441,0.57c0.767,0.042,0.864,0.09,0.864,0.215c0,0.277-0.028,0.326-0.389,0.326
		c-0.577,0-1.216-0.021-1.872-0.021c-0.64,0-1.263,0.021-1.861,0.021c-0.129,0-0.129-0.049-0.129-0.326
		c0-0.125,0.071-0.174,0.612-0.215c0.084,0,0.447-0.007,0.447-0.57V37.457z"/>
	<path fill="#1D1D1B" d="M73.123,36.699c-0.327-0.701-0.449-0.757-0.983-0.757c-0.104,0-0.156-0.139-0.156-0.256
		c0-0.14,0.052-0.279,0.156-0.279c0.618,0,1.233,0.042,1.836,0.042c0.641,0,1.286-0.042,1.977-0.042c0.115,0,0.122,0.078,0.122,0.25
		c0,0.188-0.036,0.285-0.462,0.285c-0.114,0-0.461,0.132-0.461,0.389c0,0.473,1.149,3.021,1.384,3.459
		c0.199-0.507,1.393-3.007,1.393-3.362c0-0.298-0.231-0.486-0.759-0.486c-0.265,0-0.3-0.083-0.3-0.256
		c0-0.14,0.035-0.279,0.122-0.279c0.413,0,0.875,0.042,1.322,0.042c0.434,0,0.876-0.042,1.317-0.042
		c0.107,0,0.127,0.078,0.127,0.167c0,0.215,0,0.368-0.127,0.368c-0.386,0-0.686,0.035-0.841,0.354
		c-0.687,1.5-2.055,4.445-2.688,5.632c-0.101,0.194-0.176,0.299-0.399,0.299c-0.253,0-0.409-0.493-0.746-1.244L73.123,36.699z"/>
	<path fill="#1D1D1B" d="M81.123,37.457c0-0.925-0.201-1.029-0.883-1.175c-0.127-0.041-0.142-0.09-0.142-0.229
		c0-0.076,0.021-0.152,0.063-0.18c2.09-0.375,2.68-0.945,2.76-0.945c0.094,0,0.171,0.119,0.171,0.216
		c0,0.11-0.077,0.854-0.077,2.277V40.9c0,0.557,0.36,0.57,0.437,0.57c0.556,0.042,0.628,0.09,0.628,0.215
		c0,0.277,0,0.326-0.129,0.326c-0.603,0-1.235-0.021-1.878-0.021c-0.639,0-1.264,0.021-1.854,0.021
		c-0.143,0-0.143-0.049-0.143-0.326c0-0.125,0.068-0.174,0.632-0.215c0.055,0,0.414-0.013,0.414-0.57V37.457z M82.046,31.324
		c0.625,0,1.107,0.486,1.107,1.097c0,0.605-0.482,1.104-1.107,1.104c-0.59,0-1.094-0.499-1.094-1.104
		C80.952,31.811,81.456,31.324,82.046,31.324"/>
	<path fill="#1D1D1B" d="M91.73,40.566c0,0.056-1.053,1.632-3.073,1.632c-2.077,0-3.489-1.486-3.489-3.521
		c0-2.215,1.711-3.583,3.854-3.583c2.329,0,2.652,1.146,2.652,1.507c0,0.506-0.33,0.881-0.861,0.881
		c-1.561,0-0.456-1.854-1.778-1.854c-1.382,0-1.758,1.743-1.758,2.833c0,1.43,0.783,2.68,2.334,2.68c1.065,0,1.677-0.846,1.82-0.846
		C91.514,40.296,91.73,40.469,91.73,40.566"/>
	<path fill="#1D1D1B" d="M94.934,38.033c-0.027,0.159-0.034,0.263-0.034,0.318c0,1.223,0.667,2.646,2.43,2.646
		c1.473,0,1.765-1.021,1.949-1.021c0.149,0,0.298,0.076,0.298,0.23c0,0.208-0.732,1.992-3.15,1.992
		c-2.844,0-3.514-2.319-3.514-3.494c0-1.951,1.379-3.61,3.393-3.61c2.482,0,3.201,1.847,3.201,2.604
		c0,0.319-0.065,0.334-0.312,0.334H94.934z M96.157,37.505c1.18,0,1.309-0.098,1.309-0.55c0-0.764-0.414-1.326-1.194-1.326
		c-0.882,0-1.302,1.056-1.302,1.827C95.383,37.483,95.75,37.505,96.157,37.505"/>
	<path fill="#1D1D1B" d="M106.382,39.941c0,1.583-1.493,2.257-2.872,2.257c-0.568,0-1.138-0.132-2.1-0.132
		c-0.049,0-0.156-0.062-0.156-0.104c0-0.493-0.281-1.507-0.281-1.778c0-0.021,0.048-0.049,0.191-0.049
		c0.09,0,0.246,0.042,0.27,0.071c0.89,1.381,1.331,1.402,1.984,1.402c0.134,0,1.072-0.063,1.072-1.069
		c0-1.473-3.361-0.799-3.361-3.196c0-1.443,1.399-2.249,2.694-2.249c0.868,0,1.705,0.18,2.031,0.243c0.052,0,0.1,0.062,0.1,0.098
		c0,0.437,0.243,1.542,0.243,1.652c0,0.049-0.034,0.11-0.101,0.11c-0.143,0-0.354,0-0.398-0.068
		c-0.354-0.639-0.878-1.444-1.733-1.444c-0.583,0-1.091,0.388-1.091,1c0,0.658,0.543,0.902,2.341,1.548
		C105.928,38.497,106.382,39.206,106.382,39.941"/>
	<rect x="47.953" y="82.789" fill="#ED7D00" width="51.832" height="1.325"/>
	<path fill="#4994D0" d="M26.839,98.927c0,0.104-0.469,0.216-0.583,0.216c-0.136,0-0.237-0.036-0.279-0.126
		c-0.829-2.124-2.396-3.646-4.893-3.646c-4.253,0-6.235,3.849-6.235,7.445c0,6.534,5.619,7.007,6.16,7.007
		c3.638,0,4.527-2.201,5.247-3.5c0.027-0.083,0.114-0.173,0.217-0.173c0.615,0,0.65,0.068,0.65,0.221
		c0,0.529-0.333,2.362-0.414,3.125c-0.013,0.229-0.178,0.293-0.406,0.355c-2.173,0.437-4.038,0.841-5.66,0.841
		c-5.666,0-9.934-2.634-9.934-8.432c0-2.84,1.927-7.776,9.464-7.776c3.015,0,4.657,0.84,5.123,0.84c0.36,0,0.604-0.41,0.801-0.41
		c0.226,0,0.307,0.131,0.375,0.632C26.589,96.753,26.839,98.184,26.839,98.927"/>
	<path fill="#4994D0" d="M37.307,106.045c0,3.2,0.048,3.485,1.69,3.485c0.712,0,0.785,0.036,0.785,0.584
		c0,0.207-0.072,0.291-0.292,0.291c-1.336,0-2.638-0.055-3.975-0.055c-1.324,0-2.646,0.055-3.969,0.055
		c-0.226,0-0.293-0.084-0.293-0.291c0-0.548,0.067-0.584,0.776-0.584c1.659,0,1.708-0.285,1.708-3.485V98.49
		c0-2.604-0.143-2.896-2.008-2.896c-0.291,0-0.589-0.125-0.589-0.271c0-0.563,0.014-0.618,0.407-0.618
		c1.322,0,2.645,0.096,3.969,0.096c0.719,0,1.996-0.096,3.832-0.096c5.709,0,6.286,2.889,6.286,4.235
		c0,2.111-1.528,3.055-3.378,3.736c-0.062,0.041-0.275,0.11-0.275,0.222c0,0.097,0.149,0.236,0.438,0.653l3.764,5.146
		c0.456,0.638,0.973,0.797,1.849,0.832c0.214,0,0.242,0.056,0.242,0.258c0,0.556,0,0.617-0.219,0.617
		c-0.506,0-1.621-0.055-2.562-0.055c-0.739,0-1.584,0.055-2.254,0.055c-0.229,0-0.597-0.681-1.086-1.408l-2.72-4.084
		c-0.972-1.486-1.298-1.486-2.125-1.486V106.045z M37.307,102.551h0.848c2.809,0,3.66-1.479,3.66-3.276
		c0-1.931-0.896-3.681-3.164-3.681c-0.589,0-1.344,0.117-1.344,1.007V102.551z"/>
	<path fill="#4994D0" d="M69.688,102.587c0,2.812-1.6,8.104-9.458,8.104c-5.104,0-8.78-3.134-8.78-8.104
		c0-4.848,4.146-8.104,9.464-8.104C66.025,94.483,69.688,97.629,69.688,102.587 M55.574,102.587c0,2.75,1.017,7.235,5.007,7.235
		c4.133,0,4.99-3.847,4.99-7.235c0-3.027-1.107-7.217-4.99-7.217C56.421,95.37,55.574,99.336,55.574,102.587"/>
	<path fill="#4994D0" d="M75.922,98.49c0-2.612-0.136-2.903-1.982-2.903c-0.3,0-0.605-0.118-0.605-0.264
		c0-0.563,0.028-0.618,0.411-0.618c1.328,0,2.637,0.096,3.961,0.096c1.329,0,2.652-0.096,3.981-0.096
		c0.379,0,0.401,0.055,0.401,0.618c0,0.146-0.292,0.264-0.599,0.264c-1.857,0-1.985,0.291-1.985,2.903v5.457
		c0,5.05,3.643,5.139,4.899,5.139c3.051,0,4.722-2.02,4.722-6.013v-3.868c0-3.618-0.81-3.618-2.268-3.618
		c-0.216,0-0.692-0.057-0.692-0.396c0-0.312,0.052-0.485,0.358-0.485c0.726,0,1.941,0.096,2.879,0.096
		c0.768,0,1.879-0.096,2.938-0.096c0.306,0,0.306,0.174,0.306,0.569c0,0.256-0.285,0.298-0.788,0.312
		c-0.598,0.041-1.688,0.222-1.703,1.861c-0.114,5.812-0.205,7.555-0.427,8.484c-0.83,3.465-3.802,4.759-6.948,4.759
		c-4.628,0-6.86-2.528-6.86-5.369V98.49z"/>
	<path fill="#4994D0" d="M106.709,98.44c0,0.216-0.285,0.285-0.667,0.285c-0.405,0-0.777-3.355-4.013-3.355
		c-1.557,0-2.716,1.063-2.716,2.57c0,2.194,3.536,2.66,6.215,4.646c1.216,0.91,1.709,2.118,1.709,3.5
		c0,2.473-2.05,4.604-6.073,4.604c-1.574,0-2.639-0.293-4.437-0.293c-0.252,0-0.428-0.013-0.469-0.319
		c-0.065-0.577-0.302-2.841-0.302-3.59c0-0.097,0.094-0.119,0.519-0.119c0.285,0,0.327,0.182,0.463,0.57
		c0.67,1.716,1.927,2.882,4.062,2.882c1.699,0,2.837-0.985,2.837-2.444c0-4.042-7.489-3.152-7.489-8.11
		c0-2.951,2.319-4.784,5.38-4.784c0.884,0,1.745,0.139,2.386,0.256c0.661,0.125,1.15,0.243,1.299,0.243
		c0.263,0,0.441-0.416,0.697-0.416c0.171,0,0.252,0.096,0.279,0.804C106.424,97.15,106.709,98.352,106.709,98.44"/>
	<path fill="#4994D0" d="M23.95,130.961c-0.07,0.152-0.178,0.214-0.34,0.214c-0.249,0-0.327,0-0.514-0.533
		c-1.166-3.41-2.138-5.89-3.021-8.146h-0.027c-1.039,5.777-1.039,6.667-1.039,6.826c0,0.903,0.198,1.105,0.938,1.105
		c0.434,0,0.542,0.049,0.542,0.243c0,0.353-0.059,0.367-0.188,0.367c-0.454,0-0.896-0.041-1.441-0.041
		c-1.75,0-1.83,0.041-1.878,0.041c-0.156,0-0.292-0.041-0.292-0.243c0-0.318,0.101-0.341,0.496-0.367
		c0.914-0.076,0.89-0.16,1.168-1.668l1.245-7.276c-0.291-0.758-0.44-0.862-1.124-0.862c-0.645,0-0.674-0.055-0.674-0.339
		c0-0.166,0.035-0.278,0.24-0.278c0.868,0,1.379,0.062,1.778,0.062c0.386,0,0.923-0.062,1.82-0.062c0.045,0,0.143,0.056,0.156,0.112
		c0.771,2.304,1.771,4.901,2.827,7.763c1.037-2.451,2.111-4.89,3.068-7.368c0.142-0.388,0.243-0.507,0.378-0.507
		c0.91,0,1.508,0.062,1.771,0.062c0.32,0,0.917-0.062,1.955-0.062c0.114,0,0.169,0.021,0.169,0.278c0,0.319-0.049,0.339-0.524,0.339
		c-1.037,0-1.173,0.293-1.173,1.077c0,0.549,0.104,1.784,0.239,6.833c0.039,1.653,0.094,1.896,1.409,1.896
		c0.233,0,0.24,0.104,0.24,0.257c0,0.277,0.025,0.354-0.191,0.354c-0.603,0-1.208-0.041-1.805-0.041c-1.12,0-2.227,0.041-3.32,0.041
		c-0.223,0-0.223-0.139-0.223-0.292c0-0.285,0.081-0.318,0.333-0.318c0.739,0,1.275-0.043,1.275-0.562
		c0-1.354-0.171-5.604-0.265-8.236h-0.028L23.95,130.961z"/>
	<path fill="#4994D0" d="M32.699,127.516c0-2.847,2.574-3.667,3.977-3.667c1.406,0,3.986,0.82,3.986,3.667
		c0,2.854-2.581,3.688-3.986,3.688C35.273,131.204,32.699,130.37,32.699,127.516 M38.38,127.516c0-1.348-0.191-3.11-1.705-3.11
		c-1.503,0-1.688,1.763-1.688,3.139c0,1.354,0.185,3.111,1.688,3.111C38.188,130.655,38.38,128.898,38.38,127.516"/>
	<path fill="#4994D0" d="M42.383,126.294c0-0.972-0.211-1.069-0.923-1.222c-0.142-0.041-0.156-0.118-0.156-0.235
		c0-0.071,0.035-0.175,0.07-0.188c2.17-0.389,2.78-0.979,2.851-0.979c0.03,0,0.127,0.062,0.127,0.132
		c0,0.388-0.042,0.812-0.042,1.215c0.91-0.619,1.771-1.076,2.71-1.076c1.131,0,1.972,0.778,1.972,1.999v3.911
		c0,0.583,0.36,0.609,0.441,0.609c0.566,0.036,0.809,0.083,0.809,0.21c0,0.291,0,0.353-0.307,0.353c-0.619,0-1.257-0.033-1.94-0.033
		c-0.654,0-1.309,0.033-1.771,0.033c-0.143,0-0.143-0.062-0.143-0.353c0-0.127,0.087-0.174,0.499-0.21
		c0.078,0,0.44-0.026,0.44-0.609v-3.411c0-0.5-0.247-1.408-1.292-1.408c-0.378,0-1.084,0.27-1.35,0.577
		c-0.032,0.172-0.032,0.407-0.032,0.65v3.592c0,0.583,0.378,0.609,0.449,0.609c0.562,0.036,0.642,0.083,0.642,0.21
		c0,0.291,0,0.353-0.129,0.353c-0.619,0-1.273-0.033-1.955-0.033c-0.656,0-1.31,0.033-1.927,0.033c-0.135,0-0.135-0.062-0.135-0.353
		c0-0.127,0.075-0.174,0.645-0.21c0.087,0,0.448-0.026,0.448-0.609V126.294z"/>
	<path fill="#4994D0" d="M55.926,124.287c0.062,0,0.107,0.125,0.107,0.465c0,0.354-0.028,0.354-0.258,0.354H53.5v3.458
		c0,0.757,0.056,1.75,1.123,1.75c0.568,0,1.131-0.333,1.167-0.333c0.107,0,0.229,0.229,0.229,0.312c0,0.133-0.855,0.91-2.306,0.91
		c-1.343,0-2.178-0.618-2.178-1.717v-4.381h-0.895c-0.143,0-0.143-0.09-0.143-0.242c0-0.159,0.032-0.195,0.059-0.216
		c1.33-0.82,2.017-1.492,2.49-2.132c0.02-0.028,0.056-0.028,0.327-0.028c0.127,0,0.205,0.007,0.205,0.152
		c0,0.536-0.071,1.069-0.078,1.646H55.926z"/>
	<path fill="#4994D0" d="M57.102,125.913c0-0.612-0.208-0.688-1.017-0.841c-0.029,0-0.029-0.076-0.029-0.181
		c0-0.173,0.007-0.223,0.178-0.266c1.771-0.45,2.626-0.956,2.729-0.956c0.065,0,0.121,0.062,0.121,0.069
		c0,0.402-0.056,0.771-0.056,1.166c0.638-0.486,1.309-0.965,2.146-0.965c3.01,0,3.181,2.909,3.181,3.429
		c0,3.084-1.901,3.835-3.436,3.835c-0.622,0-1.225-0.062-1.872-0.236v2.848c0,0.589,0.375,0.625,0.449,0.625
		c0.577,0.027,0.801,0.062,0.882,0.188c0,0.298,0,0.346-0.223,0.346c-0.774,0-1.406-0.033-2.096-0.033
		c-0.66,0-1.309,0.033-1.927,0.033c-0.135,0-0.135-0.048-0.135-0.346c0-0.126,0.087-0.16,0.663-0.188
		c0.062,0,0.441-0.036,0.441-0.625V125.913z M59.049,129.189c0,1.021,0.549,1.466,1.473,1.466c1.195,0,1.555-1.194,1.555-2.243
		c0-1.382-0.014-3.548-1.649-3.548c-0.802,0-1.379,0.493-1.379,1.514V129.189z"/>
	<path fill="#4994D0" d="M67.498,126.892c-0.021,0.18-0.035,0.264-0.035,0.332c0,1.251,0.691,2.758,2.497,2.758
		c1.555,0,1.853-1.07,2.041-1.07c0.143,0,0.328,0.063,0.328,0.224c0,0.207-0.781,2.069-3.278,2.069
		c-2.951,0-3.643-2.396-3.643-3.626c0-2.006,1.431-3.729,3.514-3.729c2.574,0,3.32,1.912,3.32,2.696c0,0.326-0.062,0.347-0.34,0.347
		H67.498z M68.765,126.337c1.23,0,1.364-0.098,1.364-0.557c0-0.784-0.441-1.375-1.242-1.375c-0.935,0-1.351,1.104-1.351,1.889
		C67.938,126.322,68.344,126.337,68.765,126.337"/>
	<path fill="#4994D0" d="M74.092,121.662c0-1.007-0.122-1.152-0.991-1.222c-0.075,0-0.11-0.063-0.11-0.202
		c0-0.235,0.062-0.271,0.768-0.36c1.166-0.119,2.152-0.583,2.28-0.583c0.059,0,0.165,0.069,0.165,0.152
		c0,0.771-0.143,0.951-0.143,3.193v7.21c0,0.583,0.371,0.609,0.448,0.609c0.569,0.036,0.648,0.083,0.648,0.21
		c0,0.291,0,0.353-0.134,0.353c-0.625,0-1.282-0.026-1.942-0.026c-0.67,0-1.322,0.026-1.927,0.026c-0.142,0-0.142-0.062-0.142-0.353
		c0-0.127,0.083-0.174,0.631-0.21c0.094,0,0.449-0.026,0.449-0.609V121.662z"/>
	<path fill="#4994D0" d="M78.662,121.662c0-1.007-0.123-1.152-1.004-1.222c-0.07,0-0.09-0.063-0.09-0.202
		c0-0.235,0.055-0.271,0.768-0.36c1.152-0.119,2.145-0.583,2.273-0.583c0.056,0,0.149,0.069,0.149,0.152
		c0,0.771-0.142,0.951-0.142,3.193v7.21c0,0.583,0.385,0.609,0.456,0.609c0.562,0.036,0.649,0.083,0.649,0.21
		c0,0.291,0,0.353-0.143,0.353c-0.615,0-1.26-0.026-1.951-0.026c-0.646,0-1.292,0.026-1.917,0.026c-0.142,0-0.142-0.062-0.142-0.353
		c0-0.127,0.075-0.174,0.645-0.21c0.078,0,0.45-0.026,0.45-0.609V121.662z"/>
	<path fill="#4994D0" d="M83.244,126.294c0-0.972-0.229-1.069-0.941-1.222c-0.149-0.041-0.163-0.112-0.163-0.235
		c0-0.071,0.035-0.175,0.094-0.188c2.145-0.389,2.767-0.979,2.843-0.979c0.101,0,0.185,0.111,0.185,0.215
		c0,0.132-0.077,0.888-0.077,2.374v3.592c0,0.583,0.382,0.609,0.454,0.609c0.563,0.036,0.647,0.083,0.647,0.21
		c0,0.291,0,0.353-0.149,0.353c-0.611,0-1.25-0.033-1.927-0.033c-0.68,0-1.324,0.033-1.949,0.033c-0.134,0-0.134-0.062-0.134-0.353
		c0-0.127,0.085-0.174,0.655-0.21c0.071,0,0.462-0.026,0.462-0.609V126.294z M84.188,119.934c0.625,0,1.133,0.507,1.133,1.139
		c0,0.625-0.507,1.139-1.133,1.139c-0.631,0-1.144-0.514-1.144-1.139C83.043,120.44,83.556,119.934,84.188,119.934"/>
	<path fill="#4994D0" d="M89.182,126.892c-0.014,0.18-0.029,0.264-0.029,0.332c0,1.251,0.692,2.758,2.519,2.758
		c1.527,0,1.827-1.07,2.028-1.07c0.142,0,0.312,0.063,0.312,0.224c0,0.207-0.774,2.069-3.271,2.069
		c-2.944,0-3.648-2.396-3.648-3.626c0-2.006,1.444-3.729,3.527-3.729c2.565,0,3.298,1.912,3.298,2.696
		c0,0.326-0.056,0.347-0.299,0.347H89.182z M90.463,126.337c1.221,0,1.357-0.098,1.357-0.557c0-0.784-0.427-1.375-1.25-1.375
		c-0.91,0-1.337,1.104-1.337,1.889C89.644,126.322,90.042,126.337,90.463,126.337"/>
	<path fill="#4994D0" d="M95.947,126.294c0-0.972-0.204-1.069-0.923-1.222c-0.142-0.041-0.149-0.118-0.149-0.235
		c0-0.071,0.022-0.175,0.071-0.188c2.163-0.389,2.78-0.979,2.854-0.979c0.013,0,0.118,0.062,0.118,0.132
		c0,0.388-0.034,0.812-0.034,1.367c0.609-0.583,1.35-1.32,2.26-1.32c0.548,0,1.111,0.411,1.111,1.016
		c0,0.52-0.327,0.973-0.896,0.973c-0.888,0-0.888-0.716-1.431-0.716c-0.461,0-0.91,0.61-1.017,0.778v3.951
		c0,0.583,0.365,0.609,0.44,0.609c0.813,0.036,0.925,0.083,0.925,0.21c0,0.291-0.042,0.353-0.411,0.353
		c-0.618,0-1.267-0.033-1.94-0.033c-0.664,0-1.309,0.033-1.927,0.033c-0.143,0-0.143-0.062-0.143-0.353
		c0-0.127,0.083-0.174,0.646-0.21c0.093,0,0.447-0.026,0.447-0.609V126.294z"/>
</g>
</svg>
