<?xml version="1.0" encoding="utf-8"?>
<!-- Generator: Adobe Illustrator 16.0.0, SVG Export Plug-In . SVG Version: 6.00 Build 0)  -->
<!DOCTYPE svg PUBLIC "-//W3C//DTD SVG 1.1//EN" "http://www.w3.org/Graphics/SVG/1.1/DTD/svg11.dtd">
<svg version="1.1" id="Calque_1" xmlns="http://www.w3.org/2000/svg" xmlns:xlink="http://www.w3.org/1999/xlink" x="0px" y="0px"
	 width="600px" height="160px" viewBox="0 0 600 160" enable-background="new 0 0 600 160" xml:space="preserve">
<g>
	<path fill="#FFFFFF" d="M193.417,108.813c1.943,0,3.454,1.511,3.454,3.453c0,1.944-1.511,3.455-3.454,3.455h-33.245
		c-2.051,0-3.67-1.619-3.67-3.67V45.886c0-2.051,1.619-3.669,3.67-3.669c2.051,0,3.67,1.619,3.67,3.669v62.928H193.417z"/>
	<path fill="#FFFFFF" d="M194.39,68.445c-0.323,0.324-0.647,0.647-1.402,0.647c-0.864,0-1.619-0.647-1.619-1.619
		c0-0.324,0.107-0.648,0.324-0.972c2.59-3.562,3.994-6.044,3.994-9.822c0-4.102-3.886-4.857-3.886-9.283
		c0-3.562,1.943-5.18,5.073-5.18c3.346,0,5.289,1.942,5.289,6.908C202.162,56.572,199.14,63.479,194.39,68.445z"/>
	<path fill="#FFFFFF" d="M221.267,112.915c0,1.943-1.619,3.669-3.669,3.669c-2.051,0-3.671-1.726-3.671-3.669V45.886
		c0-1.943,1.62-3.669,3.671-3.669c2.05,0,3.669,1.727,3.669,3.669V112.915z"/>
	<path fill="#FFFFFF" d="M289.27,45.778v67.137c0,2.051-1.619,3.669-3.67,3.669c-1.295,0-2.267-0.539-3.022-1.51l-37.994-57.315
		v55.264c0,1.943-1.619,3.562-3.562,3.562s-3.562-1.618-3.562-3.562V45.778c0-1.943,1.618-3.562,3.562-3.562
		c1.295,0,2.375,0.755,2.914,1.511l38.21,57.423V45.778c0-1.943,1.62-3.562,3.562-3.562S289.27,43.835,289.27,45.778z"/>
	<path fill="#FFFFFF" d="M324.354,43.079c20.617,0,33.353,9.714,33.353,36.375c0,26.662-12.735,36.268-33.353,36.268h-15.219
		c-2.052,0-3.671-1.619-3.671-3.67V46.75c0-2.051,1.619-3.67,3.671-3.67H324.354z M312.804,109.029h11.55
		c16.082,0,25.905-7.124,25.905-29.576c0-22.235-9.823-29.682-25.905-29.682h-11.55V109.029z"/>
	<path fill="#FFFFFF" d="M374.765,115.722c-2.052,0-3.671-1.619-3.671-3.67V46.75c0-2.051,1.619-3.67,3.671-3.67h34.647
		c1.835,0,3.346,1.511,3.346,3.347c0,1.834-1.511,3.346-3.346,3.346h-30.979v26.013h23.746c1.835,0,3.346,1.511,3.346,3.347
		c0,1.833-1.511,3.344-3.346,3.344h-23.746v26.554h32.165c1.836,0,3.347,1.512,3.347,3.346c0,1.836-1.511,3.347-3.347,3.347H374.765
		z"/>
	<path fill="#FFFFFF" d="M445.356,85.067l-19.644,30.114c-0.539,0.863-1.727,1.402-2.915,1.402c-2.05,0-3.669-1.618-3.669-3.669
		c0-0.756,0.217-1.403,0.54-1.942l21.588-32.49l-20.292-30.654c-0.325-0.432-0.54-1.295-0.54-1.943c0-2.051,1.618-3.669,3.669-3.669
		c1.512,0,2.483,0.755,3.238,1.834l18.024,27.632l18.027-27.632c0.756-1.08,1.727-1.834,3.238-1.834
		c2.051,0,3.671,1.619,3.671,3.669c0,0.647-0.218,1.511-0.541,1.943L449.46,78.483l21.588,32.49
		c0.323,0.539,0.539,1.187,0.539,1.942c0,2.051-1.619,3.669-3.669,3.669c-1.188,0-2.376-0.539-2.914-1.402L445.356,85.067z"/>
</g>
<path fill="#FFFFFF" d="M546.492,50.983c-1.467,0.316-2.43,1.725-2.193,3.208l2.123,12.24c0.268,1.538,1.731,2.566,3.269,2.299
	c0.01-0.002,0.021-0.003,0.033-0.006c1.518-0.286,2.524-1.736,2.262-3.258l-2.124-12.24c-0.285-1.533-1.762-2.544-3.296-2.257
	C546.542,50.973,546.517,50.978,546.492,50.983z M530.055,61.284c-1.507,0.407-2.398,1.957-1.992,3.464
	c0.174,0.64,0.566,1.2,1.109,1.58c0.014-0.003,0.026-0.005,0.037-0.006l10.148,7.18c1.285,0.885,3.045,0.562,3.929-0.724
	c0.009-0.012,0.018-0.025,0.027-0.039l0.037-0.006c0.848-1.282,0.514-3.007-0.751-3.883l-7.616-5.364l-2.523-1.778
	c-0.463-0.332-1.014-0.516-1.581-0.528c-0.189,0-0.38,0.02-0.564,0.059C530.228,61.25,530.142,61.266,530.055,61.284z
	 M565.033,55.218c-0.594,0.193-1.104,0.578-1.454,1.092l-1.815,2.532l-5.366,7.616c-0.883,1.258-0.6,2.992,0.639,3.901
	c1.252,0.933,3.022,0.674,3.954-0.576c0.011-0.013,0.019-0.026,0.028-0.038l7.175-10.184c0.898-1.276,0.591-3.039-0.686-3.938
	c-0.654-0.46-1.474-0.621-2.253-0.444C565.18,55.188,565.104,55.203,565.033,55.218z M550.24,71.919
	c-3.356,0.582-5.629,3.779-5.028,7.14c1.975,11.052,3.914,22.576,5.718,32.972c-6.239-3.85-7.336-5.519-12.868-6.784
	c-8.046-1.841-9.433,6.621-3.689,10.229c7.932,4.984,19.707,16.839,22.729,27.503c1.383,4.892,1.911,9.708,2.717,14.354
	c0.129,0.741,0.86,1.226,1.604,1.096l33.196-5.757c0.611-0.105,0.947-0.584,0.953-1.12c0.025-3.438-0.322-6.916,0.179-10.193
	c1.359-8.919,2.539-17.766,0.721-28.018c-1.069-6.07-1.875-10.811-2.921-16.838c-0.672-3.879-3.351-5.187-5.738-4.89
	c-2.504,0.313-3.383,1.191-4.778,2.854c-0.585-3.369-3.805-5.605-7.174-5.02c-2.031,0.352-3.616,1.644-4.46,3.37
	c-0.94-2.886-3.885-4.714-6.951-4.181c-2.007,0.347-3.654,1.613-4.51,3.303l-2.562-14.991
	C556.794,73.586,553.593,71.339,550.24,71.919z M526.118,80c-1.548,0.27-2.583,1.741-2.313,3.287
	c0.268,1.546,1.739,2.583,3.285,2.315l12.24-2.123c1.537-0.267,2.564-1.729,2.299-3.265l-0.007-0.037
	c-0.266-1.535-1.728-2.564-3.264-2.299L526.118,80z M563.432,73.529c-1.535,0.268-2.564,1.729-2.3,3.264l0.008,0.037
	c0.267,1.537,1.729,2.564,3.265,2.299l12.277-2.128c1.546-0.269,2.582-1.74,2.314-3.286c-0.269-1.546-1.739-2.584-3.287-2.315
	L563.432,73.529z"/>
<path fill="#FFFFFF" d="M14.537,84.44H5.966c-0.979,0-1.751,0.77-1.751,1.749v26.404c0,0.981,0.772,1.752,1.751,1.752
	c0.983,0,1.754-0.771,1.754-1.752v-10.738h6.817c5.253,0,8.515-3.348,8.515-8.73C23.051,87.767,19.79,84.44,14.537,84.44
	 M19.505,93.125c0,3.486-1.968,5.483-5.396,5.483H7.72V87.686h6.39C17.537,87.686,19.505,89.666,19.505,93.125"/>
<path fill="#FFFFFF" d="M38.561,85.261c-0.304-0.729-0.936-1.167-1.687-1.167c-0.766,0-1.32,0.396-1.644,1.172l-10.5,26.551
	c-0.118,0.234-0.157,0.593-0.157,0.777c0,0.949,0.802,1.752,1.75,1.752c0.766,0,1.397-0.455,1.69-1.214l3.072-7.703h11.622
	l3.028,7.74c0.29,0.748,0.902,1.177,1.69,1.177c1.01,0,1.797-0.771,1.797-1.752c0-0.157-0.051-0.498-0.151-0.755L38.561,85.261z
	 M41.579,102.182h-9.367l4.666-12.092L41.579,102.182z"/>
<path fill="#FFFFFF" d="M66.361,87.084c2.875,0,5.725,1.372,7.271,3.51c0.358,0.449,0.8,0.667,1.343,0.667
	c0.933,0,1.666-0.732,1.666-1.667c0-0.382-0.12-0.743-0.356-1.071c-2.123-2.934-5.831-4.687-9.923-4.687
	c-8.85,0-13.725,5.473-13.725,15.406c0,10.194,4.62,15.361,13.725,15.361c4.096,0,8.011-1.843,9.975-4.694
	c0.182-0.278,0.305-0.55,0.305-0.977c0-0.935-0.733-1.667-1.666-1.667c-0.549,0-1.053,0.258-1.355,0.684
	c-1.486,2.133-4.201,3.408-7.259,3.408c-6.913,0-10.132-3.852-10.132-12.115C56.229,91.173,59.636,87.084,66.361,87.084"/>
<path fill="#FFFFFF" d="M99.641,110.754H87.093v-10.02h9.188c0.895,0,1.623-0.729,1.623-1.626c0-0.891-0.728-1.619-1.623-1.619
	h-9.188v-9.804h12.071c0.896,0,1.623-0.729,1.623-1.623s-0.727-1.622-1.623-1.622H85.339c-0.983,0-1.748,0.77-1.748,1.749v26.058
	c0,0.981,0.765,1.751,1.748,1.751h14.301c0.896,0,1.621-0.728,1.621-1.621C101.261,111.482,100.536,110.754,99.641,110.754"/>
<path fill="#FFFFFF" d="M53.209,18.075c-7.892,0-10.829,3.708-10.829,7.507c0,12.445,34.697,6.646,34.697,30.432
	c0,11.611-8.169,18.822-23.868,18.822c-11.312,0-20.34-5.618-24.05-11.59c-0.467-0.755-0.76-1.717-0.76-2.677
	c0-2.849,2.27-5.129,5.039-5.129c2.09,0,3.229,1.141,4.188,2.08c3.99,4.01,9.032,7.232,15.583,7.232
	c8.663,0,12.838-2.848,12.838-8.738c0-13.882-34.708-7.511-34.708-30.432c0-9.413,6.744-17.397,21.869-17.397
	c9.516,0,17.783,3.512,21.588,8.933c0.579,0.855,0.954,1.915,0.954,3.042c0,2.755-2.284,5.044-5.141,5.044
	c-1.327,0-2.661-0.76-4.09-2.09C63.578,20.252,58.629,18.075,53.209,18.075"/>
<path fill="#FFFFFF" d="M14.945,60.292h0.002C11.796,54.748,9.992,48.34,9.992,41.51c0-6.833,1.799-13.242,4.956-18.781
	l-0.005-0.008c0.766-1.314,1.103-2.552-0.565-3.54c-0.742-0.441-1.794-0.672-2.841-0.682c-1.055-0.006-2.105,0.216-2.833,0.683
	c-0.653,0.419-1.422,1.386-2.11,2.465c-0.292,0.459-0.568,0.936-0.819,1.403C2.737,28.519,1.001,34.812,1.001,41.51
	c0,6.7,1.736,12.992,4.772,18.461c0.251,0.464,0.527,0.942,0.819,1.399c0.688,1.08,1.457,2.045,2.11,2.467
	c0.729,0.466,1.778,0.688,2.833,0.681c1.047-0.006,2.099-0.239,2.841-0.68C16.046,62.849,15.711,61.603,14.945,60.292"/>
<path fill="#FFFFFF" d="M91.1,63.838c0.745,0.44,1.796,0.674,2.843,0.68c1.055,0.007,2.102-0.215,2.831-0.681
	c0.655-0.422,1.421-1.387,2.112-2.466c0.29-0.458,0.566-0.936,0.816-1.4c3.041-5.469,4.774-11.761,4.774-18.461
	c0-6.699-1.733-12.991-4.774-18.46c-0.25-0.467-0.526-0.943-0.821-1.403c-0.685-1.079-1.451-2.046-2.106-2.465
	c-0.729-0.467-1.776-0.69-2.831-0.683c-1.047,0.009-2.098,0.241-2.843,0.681c-1.67,0.989-1.331,2.227-0.566,3.541l-0.003,0.008
	c3.153,5.54,4.955,11.948,4.955,18.781c0,6.83-1.802,13.239-4.955,18.782h0.003C89.769,61.604,89.43,62.851,91.1,63.838"/>
<path fill="#FFFFFF" d="M3.909,129.13c0-4.347,2.089-6.438,5.738-6.438c2.223,0,3.674,0.882,4.421,1.983
	c0.148,0.218,0.201,0.401,0.201,0.602c0,0.533-0.439,0.974-0.988,0.974c-0.258,0-0.517-0.109-0.754-0.361
	c-0.75-0.832-1.539-1.288-2.88-1.288c-2.436,0-3.539,1.502-3.539,4.529c0,3.212,1.103,4.512,3.539,4.512
	c1.358,0,2.094-0.313,2.976-1.209c0.289-0.297,0.531-0.406,0.787-0.406c0.549,0,0.989,0.439,0.989,0.991
	c0,0.215-0.074,0.404-0.182,0.552c-0.883,1.169-2.606,1.981-4.57,1.981C5.999,135.551,3.909,133.62,3.909,129.13"/>
<path fill="#FFFFFF" d="M28.799,130.562v3.812c0,0.588-0.476,1.062-1.063,1.062c-0.585,0-1.064-0.474-1.064-1.062v-10.364
	c0-0.582,0.479-1.058,1.064-1.058h3.503c2.476,0,3.87,1.757,3.87,3.83c0,1.742-1.065,3.426-2.826,3.65l2.714,3.301
	c0.166,0.223,0.222,0.439,0.222,0.641c0,0.588-0.477,1.062-1.064,1.062c-0.31,0-0.642-0.145-0.82-0.385l-3.345-4.489H28.799z
	 M28.799,124.855v3.835h2.474c1.143,0,1.634-0.934,1.634-1.907c0-0.99-0.492-1.928-1.688-1.928H28.799z"/>
<path fill="#FFFFFF" d="M47.015,129.13c0-4.347,2.109-6.438,5.814-6.438c3.703,0,5.811,2.092,5.811,6.438
	c0,4.292-2.108,6.421-5.811,6.421C49.124,135.551,47.015,133.422,47.015,129.13 M49.22,129.13c0,3.028,1.186,4.512,3.609,4.512
	c2.423,0,3.612-1.483,3.612-4.512c0-3.044-1.189-4.529-3.612-4.529C50.405,124.601,49.22,126.086,49.22,129.13"/>
<path fill="#FFFFFF" d="M70.917,131.255v-7.387c0-0.586,0.475-1.066,1.064-1.066c0.585,0,1.058,0.48,1.058,1.066v7.387
	c0,1.117,0.425,2.423,2.497,2.423c2.076,0,2.496-1.306,2.496-2.423v-7.387c0-0.586,0.479-1.066,1.065-1.066
	c0.582,0,1.06,0.48,1.06,1.066v7.387c0,2.095-0.916,4.296-4.622,4.296C71.834,135.551,70.917,133.35,70.917,131.255"/>
<path fill="#FFFFFF" d="M96.079,124.601c-1.521,0-2.093,0.712-2.093,1.45c0,2.397,6.7,1.281,6.7,5.864
	c0,2.239-1.573,3.636-4.606,3.636c-2.176,0-3.924-1.085-4.635-2.238c-0.093-0.149-0.148-0.331-0.148-0.512
	c0-0.556,0.438-0.993,0.971-0.993c0.407,0,0.623,0.219,0.804,0.403c0.771,0.771,1.743,1.396,3.009,1.396
	c1.672,0,2.48-0.554,2.48-1.692c0-2.676-6.694-1.447-6.694-5.864c0-1.816,1.299-3.359,4.214-3.359c1.835,0,3.428,0.68,4.168,1.727
	c0.106,0.162,0.183,0.365,0.183,0.59c0,0.528-0.446,0.968-0.991,0.968c-0.252,0-0.515-0.148-0.79-0.399
	C98.077,125.022,97.123,124.601,96.079,124.601"/>
</svg>
