<?xml version="1.0" encoding="utf-8"?>
<!-- Generator: Adobe Illustrator 16.0.0, SVG Export Plug-In . SVG Version: 6.00 Build 0)  -->
<!DOCTYPE svg PUBLIC "-//W3C//DTD SVG 1.1//EN" "http://www.w3.org/Graphics/SVG/1.1/DTD/svg11.dtd">
<svg version="1.1" id="Calque_1" xmlns="http://www.w3.org/2000/svg" xmlns:xlink="http://www.w3.org/1999/xlink" x="0px" y="0px"
	 width="600px" height="160px" viewBox="0 0 600 160" enable-background="new 0 0 600 160" xml:space="preserve">
<g>
	<path fill="#FFFFFF" d="M191.484,128.684c1.748,0,3.107,1.359,3.107,3.106c0,1.749-1.359,3.107-3.107,3.107h-29.908
		c-1.844,0-3.301-1.455-3.301-3.301V72.074c0-1.846,1.457-3.301,3.301-3.301c1.845,0,3.302,1.456,3.302,3.301v56.61H191.484z"/>
	<path fill="#FFFFFF" d="M192.359,92.369c-0.291,0.29-0.583,0.581-1.262,0.581c-0.777,0-1.457-0.581-1.457-1.457
		c0-0.291,0.097-0.582,0.292-0.873c2.331-3.205,3.593-5.438,3.593-8.837c0-3.689-3.496-4.369-3.496-8.351
		c0-3.205,1.748-4.66,4.564-4.66c3.01,0,4.758,1.748,4.758,6.214C199.351,81.687,196.632,87.901,192.359,92.369z"/>
	<path fill="#FFFFFF" d="M216.538,132.373c0,1.748-1.457,3.301-3.301,3.301c-1.845,0-3.302-1.553-3.302-3.301V72.074
		c0-1.748,1.458-3.301,3.302-3.301c1.844,0,3.301,1.554,3.301,3.301V132.373z"/>
	<path fill="#FFFFFF" d="M277.712,71.977v60.396c0,1.845-1.457,3.301-3.301,3.301c-1.166,0-2.04-0.484-2.719-1.358l-34.18-51.561
		v49.715c0,1.748-1.456,3.204-3.205,3.204c-1.748,0-3.204-1.456-3.204-3.204V71.977c0-1.749,1.456-3.205,3.204-3.205
		c1.165,0,2.136,0.68,2.622,1.359l34.374,51.659V71.977c0-1.749,1.457-3.205,3.205-3.205
		C276.255,68.772,277.712,70.228,277.712,71.977z"/>
	<path fill="#FFFFFF" d="M309.275,69.549c18.547,0,30.004,8.738,30.004,32.723s-11.457,32.626-30.004,32.626h-13.692
		c-1.846,0-3.303-1.455-3.303-3.301V72.851c0-1.845,1.457-3.302,3.303-3.302H309.275z M298.884,128.878h10.391
		c14.467,0,23.303-6.409,23.303-26.606c0-20.002-8.836-26.703-23.303-26.703h-10.391V128.878z"/>
	<path fill="#FFFFFF" d="M354.625,134.897c-1.848,0-3.303-1.455-3.303-3.301V72.851c0-1.845,1.455-3.302,3.303-3.302h31.168
		c1.65,0,3.01,1.36,3.01,3.011c0,1.65-1.359,3.009-3.01,3.009h-27.867v23.402h21.361c1.65,0,3.01,1.359,3.01,3.01
		s-1.359,3.009-3.01,3.009h-21.361v23.889h28.936c1.65,0,3.01,1.359,3.01,3.009c0,1.652-1.359,3.011-3.01,3.011H354.625z"/>
	<path fill="#FFFFFF" d="M418.129,107.321l-17.672,27.091c-0.484,0.777-1.553,1.262-2.623,1.262c-1.844,0-3.301-1.456-3.301-3.301
		c0-0.68,0.195-1.262,0.486-1.746l19.42-29.229l-18.254-27.577c-0.291-0.389-0.486-1.165-0.486-1.748
		c0-1.846,1.457-3.301,3.303-3.301c1.359,0,2.232,0.68,2.912,1.651l16.215,24.857l16.217-24.857c0.68-0.971,1.553-1.651,2.914-1.651
		c1.844,0,3.301,1.456,3.301,3.301c0,0.583-0.195,1.359-0.486,1.748l-18.254,27.577l19.42,29.229
		c0.291,0.484,0.484,1.066,0.484,1.746c0,1.845-1.455,3.301-3.299,3.301c-1.068,0-2.139-0.484-2.623-1.262L418.129,107.321z"/>
</g>
<path opacity="0.9" fill="#FFFFFF" d="M520.24,71.919c-3.356,0.582-5.629,3.779-5.028,7.14c1.975,11.052,3.914,22.576,5.718,32.972
	c-6.239-3.85-7.336-5.519-12.868-6.784c-8.046-1.841-9.433,6.621-3.689,10.229c7.932,4.984,19.707,16.839,22.729,27.503
	c1.383,4.892,1.911,9.708,2.717,14.354c0.129,0.741,0.86,1.226,1.604,1.096l33.196-5.757c0.611-0.105,0.947-0.584,0.953-1.12
	c0.025-3.438-0.322-6.916,0.179-10.193c1.359-8.919,2.539-17.766,0.721-28.018c-1.069-6.07-1.875-10.811-2.921-16.838
	c-0.672-3.879-3.351-5.187-5.738-4.89c-2.504,0.313-3.383,1.191-4.778,2.854c-0.585-3.369-3.805-5.605-7.174-5.02
	c-2.031,0.352-3.616,1.644-4.46,3.37c-0.94-2.886-3.885-4.714-6.951-4.181c-2.007,0.347-3.654,1.613-4.51,3.303l-2.562-14.991
	C526.794,73.586,523.593,71.339,520.24,71.919z"/>
<path fill="#FFFFFF" d="M24.537,84.44h-8.571c-0.979,0-1.751,0.77-1.751,1.749v26.404c0,0.981,0.772,1.752,1.751,1.752
	c0.983,0,1.754-0.771,1.754-1.752v-10.738h6.817c5.253,0,8.515-3.348,8.515-8.73C33.051,87.767,29.79,84.44,24.537,84.44
	 M29.505,93.125c0,3.486-1.968,5.483-5.396,5.483h-6.39V87.686h6.39C27.537,87.686,29.505,89.666,29.505,93.125"/>
<path fill="#FFFFFF" d="M48.561,85.261c-0.304-0.729-0.936-1.167-1.687-1.167c-0.766,0-1.32,0.396-1.644,1.172l-10.5,26.551
	c-0.118,0.234-0.157,0.593-0.157,0.777c0,0.949,0.802,1.752,1.75,1.752c0.766,0,1.397-0.455,1.69-1.214l3.072-7.703h11.622
	l3.028,7.74c0.29,0.748,0.902,1.177,1.69,1.177c1.01,0,1.797-0.771,1.797-1.752c0-0.157-0.051-0.498-0.151-0.755L48.561,85.261z
	 M51.579,102.182h-9.367l4.666-12.092L51.579,102.182z"/>
<path fill="#FFFFFF" d="M76.361,87.084c2.875,0,5.725,1.372,7.271,3.51c0.358,0.449,0.8,0.667,1.343,0.667
	c0.933,0,1.666-0.732,1.666-1.667c0-0.382-0.12-0.743-0.356-1.071c-2.123-2.934-5.831-4.687-9.923-4.687
	c-8.85,0-13.725,5.473-13.725,15.406c0,10.194,4.62,15.361,13.725,15.361c4.096,0,8.011-1.843,9.975-4.694
	c0.182-0.278,0.305-0.55,0.305-0.977c0-0.935-0.733-1.667-1.666-1.667c-0.549,0-1.053,0.258-1.355,0.684
	c-1.486,2.133-4.201,3.408-7.259,3.408c-6.913,0-10.132-3.852-10.132-12.115C66.229,91.173,69.636,87.084,76.361,87.084"/>
<path fill="#FFFFFF" d="M109.641,110.754H97.093v-10.02h9.188c0.895,0,1.623-0.729,1.623-1.626c0-0.891-0.728-1.619-1.623-1.619
	h-9.188v-9.804h12.071c0.896,0,1.623-0.729,1.623-1.623s-0.727-1.622-1.623-1.622H95.339c-0.983,0-1.748,0.77-1.748,1.749v26.058
	c0,0.981,0.765,1.751,1.748,1.751h14.301c0.896,0,1.621-0.728,1.621-1.621C111.261,111.482,110.536,110.754,109.641,110.754"/>
<path fill="#FFFFFF" d="M63.209,18.075c-7.892,0-10.829,3.708-10.829,7.507c0,12.445,34.697,6.646,34.697,30.432
	c0,11.611-8.169,18.822-23.868,18.822c-11.312,0-20.34-5.618-24.05-11.59c-0.467-0.755-0.76-1.717-0.76-2.677
	c0-2.849,2.27-5.129,5.039-5.129c2.09,0,3.229,1.141,4.188,2.08c3.99,4.01,9.032,7.232,15.583,7.232
	c8.663,0,12.838-2.848,12.838-8.738c0-13.882-34.708-7.511-34.708-30.432c0-9.413,6.744-17.397,21.869-17.397
	c9.516,0,17.783,3.512,21.588,8.933c0.579,0.855,0.954,1.915,0.954,3.042c0,2.755-2.284,5.044-5.141,5.044
	c-1.327,0-2.661-0.76-4.09-2.09C73.578,20.252,68.629,18.075,63.209,18.075"/>
<path fill="#FFFFFF" d="M24.945,60.292h0.002c-3.151-5.543-4.956-11.952-4.956-18.782c0-6.833,1.799-13.242,4.956-18.781
	l-0.005-0.008c0.766-1.314,1.103-2.552-0.565-3.54c-0.742-0.441-1.794-0.672-2.841-0.682c-1.055-0.006-2.105,0.216-2.833,0.683
	c-0.653,0.419-1.422,1.386-2.11,2.465c-0.292,0.459-0.568,0.936-0.819,1.403c-3.037,5.468-4.772,11.761-4.772,18.459
	c0,6.7,1.736,12.992,4.772,18.461c0.251,0.464,0.527,0.942,0.819,1.399c0.688,1.08,1.457,2.045,2.11,2.467
	c0.729,0.466,1.778,0.688,2.833,0.681c1.047-0.006,2.099-0.239,2.841-0.68C26.046,62.849,25.711,61.603,24.945,60.292"/>
<path fill="#FFFFFF" d="M101.1,63.838c0.745,0.44,1.796,0.674,2.843,0.68c1.055,0.007,2.102-0.215,2.831-0.681
	c0.655-0.422,1.421-1.387,2.112-2.466c0.29-0.458,0.566-0.936,0.816-1.4c3.041-5.469,4.774-11.761,4.774-18.461
	c0-6.699-1.733-12.991-4.774-18.46c-0.25-0.467-0.526-0.943-0.821-1.403c-0.685-1.079-1.451-2.046-2.106-2.465
	c-0.729-0.467-1.776-0.69-2.831-0.683c-1.047,0.009-2.098,0.241-2.843,0.681c-1.67,0.989-1.331,2.227-0.566,3.541l-0.003,0.008
	c3.153,5.54,4.955,11.948,4.955,18.781c0,6.83-1.802,13.239-4.955,18.782h0.003C99.769,61.604,99.43,62.851,101.1,63.838"/>
<path fill="#FFFFFF" d="M13.909,129.13c0-4.347,2.089-6.438,5.738-6.438c2.223,0,3.674,0.882,4.421,1.983
	c0.148,0.218,0.201,0.401,0.201,0.602c0,0.533-0.439,0.974-0.988,0.974c-0.258,0-0.517-0.109-0.754-0.361
	c-0.75-0.832-1.539-1.288-2.88-1.288c-2.436,0-3.539,1.502-3.539,4.529c0,3.212,1.103,4.512,3.539,4.512
	c1.358,0,2.094-0.313,2.976-1.209c0.289-0.297,0.531-0.406,0.787-0.406c0.549,0,0.989,0.439,0.989,0.991
	c0,0.215-0.074,0.404-0.182,0.552c-0.883,1.169-2.606,1.981-4.57,1.981C15.999,135.551,13.909,133.62,13.909,129.13"/>
<path fill="#FFFFFF" d="M38.799,130.562v3.812c0,0.588-0.476,1.062-1.063,1.062c-0.585,0-1.064-0.474-1.064-1.062v-10.364
	c0-0.582,0.479-1.058,1.064-1.058h3.503c2.476,0,3.87,1.757,3.87,3.83c0,1.742-1.065,3.426-2.826,3.65l2.714,3.301
	c0.166,0.223,0.222,0.439,0.222,0.641c0,0.588-0.477,1.062-1.064,1.062c-0.31,0-0.642-0.145-0.82-0.385l-3.345-4.489H38.799z
	 M38.799,124.855v3.835h2.474c1.143,0,1.634-0.934,1.634-1.907c0-0.99-0.492-1.928-1.688-1.928H38.799z"/>
<path fill="#FFFFFF" d="M57.015,129.13c0-4.347,2.109-6.438,5.814-6.438c3.703,0,5.811,2.092,5.811,6.438
	c0,4.292-2.108,6.421-5.811,6.421C59.124,135.551,57.015,133.422,57.015,129.13 M59.22,129.13c0,3.028,1.186,4.512,3.609,4.512
	c2.423,0,3.612-1.483,3.612-4.512c0-3.044-1.189-4.529-3.612-4.529C60.405,124.601,59.22,126.086,59.22,129.13"/>
<path fill="#FFFFFF" d="M80.917,131.255v-7.387c0-0.586,0.475-1.066,1.064-1.066c0.585,0,1.058,0.48,1.058,1.066v7.387
	c0,1.117,0.425,2.423,2.497,2.423c2.076,0,2.496-1.306,2.496-2.423v-7.387c0-0.586,0.479-1.066,1.065-1.066
	c0.582,0,1.06,0.48,1.06,1.066v7.387c0,2.095-0.916,4.296-4.622,4.296C81.834,135.551,80.917,133.35,80.917,131.255"/>
<path fill="#FFFFFF" d="M106.079,124.601c-1.521,0-2.093,0.712-2.093,1.45c0,2.397,6.7,1.281,6.7,5.864
	c0,2.239-1.573,3.636-4.606,3.636c-2.176,0-3.924-1.085-4.635-2.238c-0.093-0.149-0.148-0.331-0.148-0.512
	c0-0.556,0.438-0.993,0.971-0.993c0.407,0,0.623,0.219,0.804,0.403c0.771,0.771,1.743,1.396,3.009,1.396
	c1.672,0,2.48-0.554,2.48-1.692c0-2.676-6.694-1.447-6.694-5.864c0-1.816,1.299-3.359,4.214-3.359c1.835,0,3.428,0.68,4.168,1.727
	c0.106,0.162,0.183,0.365,0.183,0.59c0,0.528-0.446,0.968-0.991,0.968c-0.252,0-0.515-0.148-0.79-0.399
	C108.077,125.022,107.123,124.601,106.079,124.601"/>
<path opacity="0.6" fill="#FFFFFF" d="M516.492,50.983c-1.467,0.316-2.43,1.725-2.193,3.208l2.123,12.24
	c0.268,1.538,1.731,2.566,3.269,2.299c0.01-0.002,0.021-0.003,0.033-0.006c1.518-0.286,2.524-1.736,2.262-3.258l-2.124-12.24
	c-0.285-1.533-1.762-2.544-3.296-2.257C516.542,50.973,516.517,50.978,516.492,50.983z"/>
<path opacity="0.6" fill="#FFFFFF" d="M500.055,61.284c-1.507,0.407-2.398,1.957-1.992,3.464c0.174,0.64,0.566,1.2,1.109,1.58
	c0.014-0.003,0.026-0.005,0.037-0.006l10.148,7.18c1.285,0.885,3.045,0.562,3.929-0.724c0.009-0.012,0.018-0.025,0.027-0.039
	l0.037-0.006c0.848-1.282,0.514-3.007-0.751-3.883l-7.616-5.364l-2.523-1.778c-0.463-0.332-1.014-0.516-1.581-0.528
	c-0.189,0-0.38,0.02-0.564,0.059C500.228,61.25,500.142,61.266,500.055,61.284z"/>
<path opacity="0.6" fill="#FFFFFF" d="M535.033,55.218c-0.594,0.193-1.104,0.578-1.454,1.092l-1.815,2.532l-5.366,7.616
	c-0.883,1.258-0.6,2.992,0.639,3.901c1.252,0.933,3.022,0.674,3.954-0.576c0.011-0.013,0.019-0.026,0.028-0.038l7.175-10.184
	c0.898-1.276,0.591-3.039-0.686-3.938c-0.654-0.46-1.474-0.621-2.253-0.444C535.18,55.188,535.104,55.203,535.033,55.218z"/>
<path opacity="0.6" fill="#FFFFFF" d="M496.118,80c-1.548,0.27-2.583,1.741-2.313,3.287c0.268,1.546,1.739,2.583,3.285,2.315
	l12.24-2.123c1.537-0.267,2.564-1.729,2.299-3.265l-0.007-0.037c-0.266-1.535-1.728-2.564-3.264-2.299L496.118,80z"/>
<path opacity="0.6" fill="#FFFFFF" d="M533.432,73.529c-1.535,0.268-2.564,1.729-2.3,3.264l0.008,0.037
	c0.267,1.537,1.729,2.564,3.265,2.299l12.277-2.128c1.546-0.269,2.582-1.74,2.314-3.286c-0.269-1.546-1.739-2.584-3.287-2.315
	L533.432,73.529z"/>
</svg>
