<?xml version="1.0" encoding="utf-8"?>
<!-- Generator: Adobe Illustrator 16.0.0, SVG Export Plug-In . SVG Version: 6.00 Build 0)  -->
<!DOCTYPE svg PUBLIC "-//W3C//DTD SVG 1.1//EN" "http://www.w3.org/Graphics/SVG/1.1/DTD/svg11.dtd">
<svg version="1.1" id="Calque_1" xmlns="http://www.w3.org/2000/svg" xmlns:xlink="http://www.w3.org/1999/xlink" x="0px" y="0px"
	 width="310px" height="160px" viewBox="0 0 310 160" enable-background="new 0 0 310 160" xml:space="preserve">
<g>
	<polygon fill="#E85153" points="300.832,79.401 297.678,83.785 300.137,88.6 296.331,92.432 298.005,97.566 293.646,100.758 
		294.479,106.084 289.684,108.557 289.665,113.951 284.545,115.632 283.698,120.963 278.361,121.836 276.698,126.968 
		271.296,126.991 268.848,131.812 263.511,130.984 260.335,135.345 255.193,133.691 251.372,137.509 246.555,135.07 242.18,138.232 
		237.8,135.085 232.992,137.542 229.154,133.743 224.023,135.405 220.832,131.05 215.503,131.886 213.029,127.093 207.631,127.079 
		205.953,121.953 200.618,121.098 199.753,115.768 194.623,114.104 194.594,108.693 189.786,106.251 190.604,100.915 
		186.243,97.744 187.889,92.594 184.078,88.771 186.514,83.961 183.352,79.582 186.5,75.198 184.045,70.401 187.855,66.556 
		186.182,61.424 190.533,58.239 189.7,52.908 194.503,50.437 194.514,45.041 199.632,43.355 200.49,38.024 205.825,37.16 
		207.484,32.02 212.887,31.997 215.336,27.195 220.676,28.003 223.848,23.642 228.994,25.291 232.814,21.478 237.629,23.912 
		241.998,20.754 246.382,23.897 251.191,21.455 255.029,25.253 260.163,23.586 263.352,27.933 268.68,27.102 271.146,31.908 
		276.551,31.922 278.234,37.04 283.57,37.894 284.434,43.225 289.564,44.888 289.593,50.289 294.396,52.741 293.575,58.066 
		297.945,61.248 296.299,66.389 300.104,70.215 297.669,75.04 	"/>
	<g>
		<path fill="#FFFFFF" d="M269.561,95.82l-14.625-38.822c-0.568-1.527-2.033-2.54-3.67-2.54c-1.625,0-3.101,1.013-3.662,2.54
			l-5.687,15.042l-4.192,11.108l-0.301,0.783v0.006c0,0-2.003,5.279-2.021,5.351c-1.824,5.646-5.957,7.165-9.025,6.171
			c-1.141-0.366-2.947-1.337-2.254-3.654l8.438-22.31l4.014,10.621l4.232-11.002l-4.574-12.116c-0.582-1.527-2.041-2.54-3.672-2.54
			c-1.636,0-3.097,1.013-3.678,2.54l-12.139,32.136c-0.028,0.06-0.049,0.124-0.072,0.189c-1.896,5.907,1.176,11.634,7.301,13.603
			c6.125,1.973,14.084-0.521,17.922-8.73l9.371-24.7l10.948,29.094c0.599,1.579,2.087,2.536,3.681,2.536
			c0.457,0,0.922-0.075,1.379-0.247C269.309,100.107,270.326,97.842,269.561,95.82"/>
		<path fill="#FFFFFF" d="M230.498,47.729l1.67,4.881c0.064-0.004,0.132-0.004,0.214-0.004L230.498,47.729z"/>
		<polygon fill="#FFFFFF" points="242.282,65.766 242.086,45.695 241.568,65.831 241.915,66.755 		"/>
		<polygon fill="#FFFFFF" points="268.043,57.793 259.749,64.485 259.917,64.897 		"/>
		<polygon fill="#FFFFFF" points="273.93,91.159 269.104,89.307 269.198,89.544 		"/>
		<polygon fill="#FFFFFF" points="208.213,79.573 218.279,79.781 218.436,79.373 		"/>
		<polygon fill="#FFFFFF" points="208.721,73.712 219.757,75.867 219.915,75.449 		"/>
		<polygon fill="#FFFFFF" points="208.721,85.438 216.6,84.217 216.732,83.868 		"/>
		<path fill="#FFFFFF" d="M210.258,91.159l4.379-1.505c0.02-0.069,0.039-0.135,0.062-0.209L210.258,91.159z"/>
		<polygon fill="#FFFFFF" points="273.93,67.986 262.545,71.896 262.708,72.314 		"/>
		<path fill="#FFFFFF" d="M253.682,47.729l-1.888,4.899c0.067,0,0.144,0.004,0.205,0.023L253.682,47.729z"/>
		<polygon fill="#FFFFFF" points="210.258,67.986 221.152,72.194 221.311,71.766 		"/>
		<path fill="#FFFFFF" d="M259.046,50.242l-2.978,4.918c0.057,0.056,0.101,0.135,0.138,0.219L259.046,50.242z"/>
		<polygon fill="#FFFFFF" points="263.878,53.632 258.139,60.198 258.275,60.565 		"/>
		<polygon fill="#FFFFFF" points="275.462,73.712 263.911,75.5 264.068,75.937 		"/>
		<polygon fill="#FFFFFF" points="275.462,85.438 267.025,83.794 267.164,84.146 		"/>
		<polygon fill="#FFFFFF" points="275.971,79.573 265.367,79.364 265.512,79.791 		"/>
		<polygon fill="#FFFFFF" points="271.424,62.623 261.188,68.278 261.352,68.72 		"/>
		<polygon fill="#FFFFFF" points="216.143,57.793 223.997,64.657 224.141,64.248 		"/>
		<path fill="#FFFFFF" d="M225.141,50.242l2.678,4.83c0.039-0.065,0.082-0.13,0.132-0.187L225.141,50.242z"/>
		<polygon fill="#FFFFFF" points="220.305,53.632 225.654,60.258 225.787,59.905 		"/>
		<path fill="#FFFFFF" d="M238.448,57.583l-2.22-11.381l1.473,9.542c0.105,0.2,0.199,0.39,0.271,0.6L238.448,57.583z"/>
		<polygon fill="#FFFFFF" points="212.759,62.627 222.525,68.529 222.688,68.107 		"/>
		<path fill="#FFFFFF" d="M245.734,57.583l2.22-11.381l-1.479,9.542c-0.104,0.2-0.195,0.39-0.269,0.6L245.734,57.583z"/>
		<path fill="#FFFFFF" d="M242.089,130.906c-28.351,0-51.409-23.066-51.409-51.413c0-28.347,23.059-51.412,51.409-51.412
			c28.36,0,51.414,23.066,51.414,51.412C293.503,107.839,270.449,130.906,242.089,130.906 M242.089,28.458
			c-28.137,0-51.032,22.895-51.032,51.036c0,28.146,22.896,51.045,51.032,51.045c28.142,0,51.043-22.898,51.043-51.045
			C293.132,51.352,270.23,28.458,242.089,28.458"/>
		<path fill="#FFFFFF" d="M242.089,115.348c-19.769,0-35.854-16.084-35.854-35.854c0-19.764,16.086-35.86,35.854-35.86
			c19.772,0,35.865,16.096,35.865,35.86C277.954,99.264,261.861,115.348,242.089,115.348 M242.089,44.01
			c-19.563,0-35.479,15.919-35.479,35.483c0,19.569,15.916,35.483,35.479,35.483c19.567,0,35.488-15.914,35.488-35.483
			C277.577,59.929,261.656,44.01,242.089,44.01"/>
		<path fill="#FFFFFF" d="M202.402,69.909c0.676,0.163,1.16-0.014,1.308-0.632c0.147-0.608-0.19-0.984-0.885-1.151l-5.835-1.402
			l0.189-0.79l5.789,1.384c1.159,0.288,1.807,0.999,1.529,2.187c-0.286,1.166-1.198,1.509-2.346,1.236l-5.793-1.394l0.199-0.845
			L202.402,69.909z"/>
		<polygon fill="#FFFFFF" points="208.421,59.316 208.012,59.994 201.311,55.912 201.887,54.951 207.684,56.358 202.839,53.404 
			203.243,52.741 209.938,56.836 209.475,57.612 203,56.014 		"/>
		<polygon fill="#FFFFFF" points="210.809,44.01 216.141,49.787 215.491,50.363 210.171,44.604 		"/>
		<polygon fill="#FFFFFF" points="220.082,37.448 224.296,42.984 222.355,36.315 223.077,35.958 225.291,43.625 224.139,44.205 
			219.283,37.848 		"/>
		<polygon fill="#FFFFFF" points="236.546,35.767 236.661,36.547 234.777,36.845 235.212,39.599 237.536,39.231 237.654,40.021 
			234.463,40.513 233.243,32.776 236.434,32.266 236.557,33.055 234.227,33.426 234.648,36.069 		"/>
		<path fill="#FFFFFF" d="M248.917,32.456c1.222,0.177,1.635,0.882,1.463,2.029l-0.093,0.632c-0.125,0.864-0.502,1.346-1.196,1.458
			c0.681,0.306,0.865,0.929,0.737,1.76l-0.176,1.211c-0.053,0.339-0.096,0.669,0.019,0.957l-0.881-0.13
			c-0.069-0.247-0.078-0.451-0.009-0.966l0.186-1.226c0.131-0.873-0.246-1.208-0.966-1.31l-0.618-0.088l-0.476,3.311l-0.864-0.125
			l1.135-7.77L248.917,32.456z M248.157,36.092c0.688,0.093,1.125-0.07,1.25-0.901l0.114-0.757c0.104-0.692-0.104-1.091-0.752-1.188
			l-0.842-0.13l-0.42,2.879L248.157,36.092z"/>
		<path fill="#FFFFFF" d="M263.27,39.129l-0.1,0.19l-0.749-0.371l0.121-0.232c0.31-0.627,0.247-1.128-0.319-1.402
			c-0.56-0.274-0.99-0.019-1.293,0.604c-0.765,1.588,1.521,2.893,0.561,4.875c-0.526,1.073-1.379,1.514-2.458,0.99
			c-1.085-0.52-1.235-1.463-0.718-2.536l0.195-0.399l0.731,0.357l-0.218,0.436c-0.31,0.637-0.229,1.134,0.338,1.417
			c0.564,0.279,1.018,0.028,1.316-0.613c0.766-1.564-1.523-2.86-0.553-4.857c0.535-1.086,1.371-1.509,2.432-0.998
			C263.627,37.114,263.783,38.052,263.27,39.129"/>
		<polygon fill="#FFFFFF" points="273.402,44.033 268.176,49.899 267.521,49.323 272.746,43.448 		"/>
		<polygon fill="#FFFFFF" points="274.452,57.226 280.387,53.404 279.607,52.183 280.268,51.761 282.309,54.918 281.652,55.355 
			280.863,54.143 274.928,57.96 		"/>
		<path fill="#FFFFFF" d="M283.986,68.186l-0.762,0.209l-0.514-1.854l-2.686,0.748l0.625,2.271l-0.771,0.223l-0.854-3.116
			l7.556-2.099l0.871,3.102l-0.767,0.213l-0.631-2.266l-2.582,0.729L283.986,68.186z M288.855,66.76l-1.403-0.696l-0.163-0.575
			l1.333,0.445L288.855,66.76z"/>
		<path fill="#FFFFFF" d="M279.736,89.293c0.295-1.204,1.029-1.557,2.164-1.277l0.623,0.153c0.834,0.199,1.283,0.608,1.338,1.323
			c0.375-0.65,1.007-0.775,1.83-0.571l1.183,0.278c0.335,0.089,0.653,0.158,0.948,0.074l-0.195,0.863
			c-0.253,0.041-0.463,0.041-0.971-0.089l-1.189-0.274c-0.875-0.227-1.242,0.112-1.412,0.822l-0.148,0.604l3.258,0.788l-0.2,0.847
			l-7.637-1.84L279.736,89.293z M283.289,90.374c0.167-0.674,0.037-1.129-0.789-1.328l-0.73-0.171
			c-0.682-0.167-1.109-0.016-1.262,0.626l-0.189,0.831l2.82,0.684L283.289,90.374z"/>
		<polygon fill="#FFFFFF" points="279.609,99.55 280.294,99.939 279.361,101.621 281.796,102.973 282.948,100.91 283.65,101.292 
			282.078,104.124 275.216,100.309 276.781,97.484 277.48,97.874 276.328,99.927 278.673,101.234 		"/>
		<polygon fill="#FFFFFF" points="270.939,106.005 276.725,111.309 276.135,111.958 270.35,106.65 		"/>
		<polygon fill="#FFFFFF" points="267.061,119.51 262.659,113.018 263.376,112.521 267.348,118.357 269.207,117.1 269.652,117.764 
					"/>
		<polygon fill="#FFFFFF" points="256.229,124.576 253.62,117.169 254.441,116.872 256.792,123.525 258.906,122.793 
			259.174,123.536 		"/>
		<polygon fill="#FFFFFF" points="246.624,122.145 246.68,122.923 244.768,123.075 244.991,125.854 247.332,125.682 
			247.398,126.462 244.174,126.723 243.575,118.887 246.786,118.643 246.848,119.436 244.503,119.621 244.713,122.291 		"/>
		<path fill="#FFFFFF" d="M234.952,118.236c1.222,0.219,1.603,1.045,1.384,2.212l-0.177,0.919c-0.228,1.227-0.923,1.765-2.15,1.527
			l-0.759-0.136l-0.566,3.038l-0.867-0.167l1.461-7.71L234.952,118.236z M234.157,122.12c0.646,0.124,0.999-0.117,1.144-0.86
			l0.196-1.021c0.13-0.706-0.056-1.104-0.69-1.222l-0.826-0.156l-0.586,3.119L234.157,122.12z"/>
		<polygon fill="#FFFFFF" points="221.303,121.854 224.395,115.518 223.096,114.884 223.443,114.165 226.834,115.822 
			226.477,116.527 225.178,115.9 222.092,122.244 		"/>
		<polygon fill="#FFFFFF" points="210.445,114.355 209.861,113.84 215.053,107.951 215.891,108.686 213.495,114.143 
			217.251,109.896 217.83,110.407 212.629,116.296 211.943,115.684 214.648,109.595 		"/>
		<path fill="#FFFFFF" d="M206.968,100.659c1.003-0.658,1.982-0.58,2.632,0.438c0.658,1.012,0.326,1.932-0.683,2.586l-3.41,2.207
			c-0.999,0.646-1.979,0.569-2.638-0.441c-0.653-1.018-0.325-1.938,0.686-2.582L206.968,100.659z M203.986,103.609
			c-0.608,0.402-0.784,0.871-0.453,1.397c0.344,0.533,0.857,0.552,1.455,0.161l3.492-2.247c0.594-0.381,0.793-0.854,0.447-1.397
			c-0.34-0.524-0.871-0.549-1.455-0.162L203.986,103.609z"/>
		<polygon fill="#FFFFFF" points="197.471,93.536 197.244,92.725 202.875,89.747 196.861,91.484 196.654,90.75 204.191,88.559 
			204.521,89.747 198.863,92.719 205.234,92.182 205.575,93.341 198.027,95.533 197.798,94.739 203.859,92.979 		"/>
		<path fill="#FFFFFF" d="M199.791,79.494c0,0.608-0.49,1.109-1.104,1.109c-0.607,0-1.103-0.501-1.103-1.109
			c0-0.608,0.494-1.105,1.103-1.105C199.301,78.388,199.791,78.885,199.791,79.494"/>
		<path fill="#FFFFFF" d="M286.659,79.494c0,0.608-0.49,1.109-1.103,1.109c-0.604,0-1.108-0.501-1.108-1.109
			c0-0.608,0.504-1.105,1.108-1.105C286.169,78.388,286.659,78.885,286.659,79.494"/>
	</g>
</g>
<g>
	<path fill="#E31313" d="M11.783,82.042c0-1.658,0-3.319,0-4.978c0.033-0.201,0.088-0.399,0.097-0.601
		c0.142-3.197,0.568-6.358,1.262-9.482c2.65-11.906,8.404-22.074,17.322-30.38c9.997-9.314,21.86-14.522,35.491-15.664
		c0.718-0.06,1.435-0.131,2.149-0.196c1.66,0,3.32,0,4.98,0c0.166,0.028,0.333,0.07,0.503,0.083c0.98,0.078,1.963,0.134,2.942,0.227
		c4.716,0.443,9.304,1.474,13.761,3.064c8.792,3.138,16.419,8.086,22.87,14.832c5.33,5.573,9.4,11.955,12.229,19.129
		c1.87,4.748,3.074,9.66,3.669,14.725c0.115,0.969,0.179,1.944,0.264,2.918c-0.79-0.138-1.498-0.3-2.214-0.375
		c-1.529-0.163-2.985,0.068-4.322,0.897c-2.058,1.281-2.404,4.969,0.278,6.252c0.773,0.37,1.606,0.611,2.41,0.912
		c0.629,0.235,1.267,0.444,1.877,0.718c0.372,0.165,0.561,0.497,0.497,0.937c-0.062,0.429-0.37,0.676-0.731,0.69
		c-0.767,0.035-1.573,0.111-2.294-0.086c-1.062-0.293-2.062-0.808-3.142-1.248c-0.283,0.583-0.604,1.289-0.966,1.97
		c-0.187,0.349-0.123,0.535,0.2,0.752c1.522,1.027,3.222,1.497,5.029,1.517c0.932,0.01,1.863-0.174,2.819-0.272
		c-0.006,0.075,0.001,0.21-0.02,0.343c-1.022,6.447-3.015,12.578-6.102,18.333c-6.122,11.413-15.013,19.971-26.676,25.615
		c-6.005,2.905-12.341,4.684-18.978,5.385c-0.957,0.101-1.914,0.204-2.871,0.307c-2.314,0-4.633,0-6.949,0
		c-0.167-0.033-0.33-0.085-0.498-0.095c-3.51-0.208-6.971-0.747-10.373-1.613c-11.022-2.81-20.507-8.298-28.318-16.563
		c-9.508-10.064-14.836-22.035-16-35.844C11.918,83.514,11.849,82.778,11.783,82.042z M78.574,76.688
		c-0.015-0.136-0.014-0.188-0.028-0.236c-1.795-5.985-8.989-7.16-12.976-3.69c-3.047,2.652-3.964,7.322-2.178,11.089
		c2.636,5.557,9.357,6.151,13.026,2.614c1.052-1.015,1.755-2.236,2.175-3.705c-1.08,0-2.097,0.019-3.111-0.01
		c-0.41-0.012-0.639,0.118-0.855,0.476c-1.702,2.815-5.31,3.028-7.346,0.452c-1.692-2.143-1.765-5.442-0.153-7.637
		c0.835-1.138,1.918-1.89,3.365-1.973c1.848-0.108,3.225,0.692,4.194,2.246c0.097,0.153,0.28,0.354,0.429,0.357
		C76.253,76.701,77.392,76.688,78.574,76.688z M103.443,81.998c-0.055-0.479-0.087-0.961-0.17-1.435
		c-0.804-4.632-6.289-6.851-10.04-4.02c-2.312,1.745-3.004,4.165-2.515,6.947c0.61,3.489,4.189,5.831,7.628,5.025
		C101.409,87.799,103.41,85.225,103.443,81.998z M106.636,75.604c-0.021,0.171-0.041,0.271-0.041,0.373
		c-0.002,2.263-0.022,4.527,0.007,6.791c0.014,1.071,0.166,2.124,0.668,3.104c1.203,2.358,3.938,3.185,6.401,2.648
		c2.785-0.604,4.409-2.707,4.42-5.641c0.01-2.229,0.003-4.458,0.001-6.688c-0.001-0.184-0.021-0.367-0.032-0.59
		c-0.97,0-1.883,0-2.797,0c-0.684,0.001-0.684,0.001-0.685,0.662c0,2.317,0.011,4.632-0.007,6.949
		c-0.008,1.06-0.828,1.937-1.842,2.038c-1.429,0.143-2.284-0.357-2.555-1.52c-0.066-0.281-0.065-0.581-0.065-0.874
		c-0.005-2.246-0.001-4.493-0.006-6.74c0-0.221,0.093-0.517-0.31-0.515C108.758,75.607,107.724,75.604,106.636,75.604z
		 M88.417,75.433c-0.879-0.242-1.737-0.171-2.582,0.016c-2.641,0.583-4.242,2.576-4.256,5.295c-0.013,2.382-0.005,4.765-0.002,7.149
		c0,0.149,0.022,0.299,0.032,0.448c1.153,0,2.265,0,3.394,0c0.01-0.171,0.021-0.308,0.021-0.443
		c0.003-2.297-0.006-4.595,0.006-6.892c0.004-1.359,0.807-2.247,2.151-2.385c0.4-0.042,0.81-0.007,1.235-0.007
		C88.417,77.53,88.417,76.484,88.417,75.433z M47.315,98.785c-0.107-0.218-0.188-0.368-0.257-0.523
		c-0.452-0.988-0.896-1.981-1.359-2.965c-0.071-0.153-0.226-0.364-0.354-0.375c-0.561-0.041-1.126-0.018-1.688-0.018
		c0,2.286,0,4.502,0,6.714c0.527,0,1.004,0,1.524,0c0-1.331,0-2.636,0-3.938c0.508,0.919,0.942,1.85,1.322,2.803
		c0.156,0.393,0.374,0.502,0.773,0.489c0.386-0.013,0.663-0.029,0.836-0.479c0.365-0.96,0.81-1.889,1.223-2.832
		c0.039,0.007,0.076,0.012,0.116,0.018c0,1.313,0,2.626,0,3.927c0.55,0,1.023,0,1.502,0c0-2.246,0-4.448,0-6.705
		c-0.48,0-0.928,0.021-1.372-0.007c-0.361-0.023-0.551,0.097-0.698,0.442C48.393,96.475,47.859,97.597,47.315,98.785z M69.957,96.83
		c-0.005-0.046-0.011-0.093-0.016-0.138c-0.174-0.079-0.344-0.187-0.526-0.227c-0.182-0.039-0.381,0.012-0.567-0.013
		c-0.416-0.056-0.528,0.12-0.524,0.522c0.019,1.85,0,3.699,0.011,5.549c0.007,1.104-0.181,0.938,1.005,0.979
		c0.426,0.014,0.536-0.146,0.518-0.541c-0.026-0.577-0.007-1.157-0.007-1.771c1.445,0.774,2.437,0.635,3.264-0.41
		c0.8-1.014,0.762-2.618-0.088-3.599C72.212,96.244,71.177,96.125,69.957,96.83z M92.852,100.124
		c0.168-0.077,0.319-0.155,0.475-0.219c0.826-0.345,1.65-0.699,2.485-1.022c0.315-0.122,0.413-0.276,0.349-0.62
		c-0.14-0.737-0.548-1.255-1.195-1.595c-1.014-0.531-2.272-0.373-3.145,0.381c-0.812,0.704-1.096,1.836-0.721,2.93
		c0.312,0.905,0.943,1.472,1.878,1.668c1.16,0.244,2.132-0.107,2.96-1.006c-0.288-0.311-0.56-0.606-0.831-0.901
		C94.172,100.592,93.525,100.699,92.852,100.124z M76.293,100.11c0.96-0.396,1.882-0.815,2.831-1.155
		c0.533-0.191,0.573-0.483,0.432-0.945c-0.301-0.986-1.252-1.645-2.431-1.654c-1.155-0.01-2.26,0.753-2.594,1.791
		c-0.404,1.259,0.095,2.638,1.179,3.238c1.195,0.662,2.742,0.352,3.665-0.764c-0.271-0.29-0.548-0.582-0.821-0.873
		C77.647,100.589,76.982,100.7,76.293,100.11z M57.457,99.11c0.043-1.524-1.117-2.713-2.685-2.755
		c-1.524-0.04-2.742,1.097-2.785,2.597c-0.043,1.552,1.068,2.716,2.652,2.776C56.183,101.79,57.412,100.646,57.457,99.11z
		 M61.796,101.607c0.549,0,1.005,0,1.439,0c0-1.262,0.071-2.488-0.024-3.701c-0.062-0.801-0.638-1.311-1.448-1.497
		c-0.681-0.159-1.245,0.099-1.8,0.501c-0.031-0.164-0.055-0.292-0.077-0.418c-0.477,0-0.936,0-1.396,0c0,1.731,0,3.429,0,5.131
		c0.487,0,0.93,0,1.435,0c0-0.888-0.008-1.746,0.007-2.604c0.003-0.273,0.032-0.558,0.118-0.813c0.146-0.441,0.615-0.685,1.08-0.606
		c0.463,0.078,0.613,0.419,0.639,0.821c0.03,0.466,0.025,0.935,0.027,1.4C61.798,100.402,61.796,100.985,61.796,101.607z
		 M67.154,96.481c-0.412-0.017-0.799-0.035-1.24-0.054c0-0.519,0-0.99,0-1.458c-0.513,0-0.968,0-1.452,0
		c0,1.698-0.005,3.354,0.001,5.009c0.005,0.992,0.739,1.786,1.726,1.723c0.477-0.032,0.935-0.358,1.399-0.553
		c-0.154-0.346-0.31-0.692-0.475-1.061c-0.1,0.065-0.194,0.135-0.296,0.192c-0.457,0.254-0.846,0.065-0.866-0.461
		c-0.028-0.703-0.007-1.406-0.007-2.178c0.425,0,0.812,0,1.21,0C67.154,97.219,67.154,96.866,67.154,96.481z M83.346,100.178
		c-0.381,0.07-0.695,0.224-0.941,0.149c-0.393-0.116-0.291-0.531-0.293-0.852c-0.002-1.362,0.005-2.725-0.011-4.088
		c-0.001-0.15-0.113-0.423-0.199-0.436c-0.372-0.048-0.757-0.035-1.134-0.003c-0.072,0.006-0.187,0.194-0.187,0.302
		c-0.009,1.586-0.022,3.173,0.01,4.759c0.017,0.773,0.408,1.354,1.165,1.606c0.775,0.256,1.451,0.042,2.059-0.543
		C83.642,100.744,83.478,100.429,83.346,100.178z M87.306,100.179c-0.418,0.062-0.812,0.242-0.989,0.116
		c-0.198-0.139-0.267-0.557-0.274-0.856c-0.029-1.156,0.003-2.312-0.016-3.471c-0.02-1.19,0.273-1.029-1.133-1.048
		c-0.298-0.004-0.387,0.124-0.386,0.403c0.008,1.555-0.015,3.108,0.012,4.661c0.016,0.986,0.666,1.652,1.646,1.729
		c0.578,0.045,1.159-0.119,1.459-0.598c0.109-0.175-0.253-0.644-0.401-0.978C87.217,100.126,87.196,100.124,87.306,100.179z
		 M100.14,96.26c-0.558,0.248-1.029,0.458-1.498,0.665c-0.023-0.13-0.051-0.288-0.074-0.425c-0.495,0-0.95,0-1.401,0
		c0,1.729,0,3.412,0,5.114c0.488,0,0.942,0,1.447,0c0-0.685-0.002-1.337,0-1.987c0.004-1.301,0.275-1.646,1.526-1.907
		C100.14,97.301,100.14,96.878,100.14,96.26z M89.883,101.618c0-1.729,0-3.424,0-5.119c-0.5,0-0.953,0-1.417,0
		c0,1.727,0,3.408,0,5.119C88.942,101.618,89.384,101.618,89.883,101.618z M90.069,95.244c0.003-0.48-0.407-0.878-0.893-0.87
		c-0.498,0.01-0.866,0.395-0.857,0.896c0.011,0.465,0.396,0.848,0.856,0.855C89.655,96.131,90.067,95.723,90.069,95.244z"/>
	<path fill-rule="evenodd" clip-rule="evenodd" fill="#E31313" d="M129.406,81.315c-1.102-0.381-2.205-0.754-3.302-1.148
		c-0.352-0.128-0.731-0.253-1.014-0.485c-0.205-0.171-0.408-0.541-0.362-0.77c0.054-0.26,0.367-0.629,0.604-0.657
		c0.668-0.076,1.367-0.082,2.029,0.035c0.696,0.123,1.364,0.419,2.045,0.64C129.406,79.725,129.406,80.521,129.406,81.315z"/>
	<path fill-rule="evenodd" clip-rule="evenodd" fill="#E31313" d="M96.996,78.513c1.081,0.022,1.877,0.539,2.396,1.458
		c0.677,1.202,0.746,2.468,0.18,3.725c-0.479,1.07-1.31,1.73-2.525,1.753c-1.234,0.025-2.086-0.602-2.621-1.684
		c-0.723-1.459-0.432-3.394,0.664-4.47C95.617,78.777,96.246,78.5,96.996,78.513z"/>
	<path fill-rule="evenodd" clip-rule="evenodd" fill="#E31313" d="M72.166,99.061c-0.005,0.77-0.516,1.354-1.188,1.355
		c-0.66,0.002-1.175-0.603-1.167-1.375c0.009-0.77,0.528-1.396,1.163-1.398C71.642,97.642,72.168,98.266,72.166,99.061z"/>
	<path fill-rule="evenodd" clip-rule="evenodd" fill="#E31313" d="M94.576,98.174c-0.595,0.242-1.154,0.469-1.711,0.693
		c-0.126,0.05-0.253,0.093-0.388,0.14c-0.052-0.622,0.189-1.015,0.733-1.228C93.755,97.567,94.22,97.682,94.576,98.174z"/>
	<path fill-rule="evenodd" clip-rule="evenodd" fill="#E31313" d="M78.01,98.183c-0.715,0.289-1.392,0.565-2.076,0.843
		c-0.06-0.65,0.227-1.093,0.806-1.278C77.274,97.577,77.736,97.714,78.01,98.183z"/>
	<path fill-rule="evenodd" clip-rule="evenodd" fill="#E31313" d="M53.486,99.032c0.006-0.789,0.529-1.377,1.231-1.382
		c0.705-0.006,1.254,0.628,1.238,1.432c-0.018,0.804-0.527,1.344-1.26,1.334C53.983,100.408,53.48,99.834,53.486,99.032z"/>
</g>
</svg>
